<svg xmlns="http://www.w3.org/2000/svg" xmlns:xlink="http://www.w3.org/1999/xlink" viewBox="0 0 221.96 353.02"><defs><style>.cls-1{fill:#e30613;}.cls-10,.cls-2{fill:#1d1d1b;}.cls-3{fill:#9bb3c3;}.cls-4{fill:#f7f0f7;}.cls-5{fill:url(#linear-gradient);}.cls-6{fill:url(#linear-gradient-2);}.cls-7{fill:#6c8ba4;}.cls-8{fill:url(#linear-gradient-3);}.cls-9{fill:#fff;}.cls-10{stroke:#1d1d1b;stroke-miterlimit:10;stroke-width:4px;}.cls-11{fill:#a5b5c2;}.cls-12{fill:#ad1923;}</style><linearGradient id="linear-gradient" x1="157.9" y1="289.11" x2="157.51" y2="263.01" gradientUnits="userSpaceOnUse"><stop offset="0" stop-color="#fff"/><stop offset="1" stop-color="#9bb3c3"/></linearGradient><linearGradient id="linear-gradient-2" x1="162.17" y1="321.7" x2="162.03" y2="312.69" xlink:href="#linear-gradient"/><linearGradient id="linear-gradient-3" x1="165.23" y1="321.65" x2="165.1" y2="312.65" xlink:href="#linear-gradient"/></defs><title>logo</title><g id="Layer_2" data-name="Layer 2"><g id="COLOR"><g id="SHIELD"><path class="cls-1" d="M110.05,352.59l-.45-.12C95.11,348.59,45,330.14,8,255.64c-8.16-16.46-8.17-60.36-8-73.42.21-14.19,1-27.92,2.22-38.66,2.06-18.12,4.42-19.71,5.55-20.48,1.79-1.22,6-3.25,21.33-7a7.11,7.11,0,0,1,.37-1.9,7,7,0,0,1-.74-2.89,6.85,6.85,0,0,1,.44-2.76,7,7,0,0,1,.34-7.31,7.19,7.19,0,0,1-1.15-5.22,7,7,0,0,1,1.12-2.78,7.37,7.37,0,0,1-1.12-6.66A7.05,7.05,0,0,1,29.19,85a7.12,7.12,0,0,1,0-6.21,6.91,6.91,0,0,1,1.5-2c-1.22-2.36-2.25-5.8.13-9a5.61,5.61,0,0,1,.49-.58,7.14,7.14,0,0,1,1.44-7.4,6.55,6.55,0,0,1,1.35-1.11c-1-4.18.48-6.64,2.12-8a7.9,7.9,0,0,1,.68-.5c-.76-3.61.06-6.36,2.44-8.2a6.74,6.74,0,0,1,2.82-1.3c-.61-3.54-.5-7.91,3.72-10a6.51,6.51,0,0,1,1.48-.52c.22-3.77,1.79-6.23,4.7-7.32a6.81,6.81,0,0,1,2.41-.44h.18c.77-3.14,2.55-5.08,5.29-5.77a6.78,6.78,0,0,1,1.68-.21h.14c1-3.48,3-5.49,6-6l.6-.1h.53a6.49,6.49,0,0,1,.77.05c1.28-3.4,3.43-5.26,6.44-5.53l.32,0h.3a6.78,6.78,0,0,1,2.21.36C80.05,2.7,82.09,0,86,0a7,7,0,0,1,5.14,2.28c4.68,5,6.35,27.62,5.45,41-.44,6.54-.87,12-1.26,16l.47.2,3.92,1.71V79.94c.3-.5.61-1,.94-1.53,2.51-3.94,4.88-7.67,10.34-7.67s7.83,3.73,10.34,7.67c.62,1,1.17,1.91,1.66,2.82V61.18l3.93-1.71.46-.2c-.38-4-.81-9.45-1.26-16-.9-13.38.78-36,5.45-41A7,7,0,0,1,136.7,0c3.89,0,5.94,2.7,7.06,5.2A6.78,6.78,0,0,1,146,4.84h.34l.29,0c3,.27,5.15,2.13,6.43,5.53a6.49,6.49,0,0,1,.77-.05h.61l.53.09c3,.5,5,2.51,6,6h.14a6.78,6.78,0,0,1,1.68.21c2.75.69,4.52,2.63,5.29,5.77h.16a6.85,6.85,0,0,1,2.44.44c2.9,1.09,4.47,3.55,4.69,7.32a6.34,6.34,0,0,1,1.48.52c4.22,2.06,4.33,6.43,3.72,10a6.84,6.84,0,0,1,2.83,1.3c2.37,1.84,3.19,4.59,2.43,8.2a6.6,6.6,0,0,1,.68.5c1.64,1.38,3.17,3.84,2.12,8a6.55,6.55,0,0,1,1.35,1.11,7.1,7.1,0,0,1,1.44,7.4,6.91,6.91,0,0,1,.49.58c2.38,3.15,1.35,6.59.13,9a6.77,6.77,0,0,1,1.51,2,7.13,7.13,0,0,1,0,6.21,7.52,7.52,0,0,1,.79,1.64,7.41,7.41,0,0,1-1.13,6.66,6.74,6.74,0,0,1,1.12,2.78,7.14,7.14,0,0,1-1.15,5.22,6.87,6.87,0,0,1,1.2,3.79,7,7,0,0,1-.85,3.52,7.18,7.18,0,0,1-.31,5.65,7,7,0,0,1,.38,2.08c14.78,3.59,18.84,5.58,20.6,6.77,1.13.77,3.49,2.36,5.55,20.48,1.22,10.74,2,24.47,2.22,38.66.2,13.06.2,57-8,73.42-36.93,74.5-87.09,92.95-101.58,96.83l-.45.12L111,353Zm20.64-243.38c6.88.38,14.2.94,21.83,1.67l-.42-4.5,0-.29c-.12-.62-.22-1.15-.28-1.52-2.92-15.32-7.43-20.43-8.5-21.46a2.72,2.72,0,0,0-.87-.17,1.65,1.65,0,0,0-.67.14,9.13,9.13,0,0,0-3.42,2l-.09.11-1.78,1.93-2,1.21-3.1,1.07-2.82-.84L125.31,87q.12.47.21.9a169.26,169.26,0,0,1,2.68,20.28A14.57,14.57,0,0,1,130.69,109.21ZM79.43,83.11c-1.08,1-5.61,6.18-8.53,21.5-.12.73-.17,1-.25,1.43l-.09.46-.78,4.31c7.5-.71,14.73-1.25,21.52-1.62a15.53,15.53,0,0,1,2.47-1,166.88,166.88,0,0,1,2.67-20.28c0-.16.07-.32.11-.49l-2.48,1.24-3,.73-2.87-1-2-1.21-1.82-2,0-.07a8.89,8.89,0,0,0-3.41-2,1.69,1.69,0,0,0-.68-.14A2.61,2.61,0,0,0,79.43,83.11Z"/><path class="cls-1" d="M110.25,342.26c-15-4.48-53.35-20.91-85.46-76.47L29,262.88c.26.31,26.56,31.77,47.46,46.77,19.26,13.83,32,17.45,34.56,18.08,2.57-.64,15.39-4.32,34.56-18.08,20.9-15,47.2-46.46,47.47-46.77l4.16,2.91c-32.11,55.56-70.46,72-85.46,76.47l-.73.22Z"/><path class="cls-1" d="M110.25,335.35C99,332,59.44,317,24.88,265.94L29,262.88c.26.31,26.56,31.77,47.46,46.77,19.15,13.75,32,17.44,34.56,18.08,2.59-.64,15.4-4.33,34.56-18.08,20.91-15,47.2-46.46,47.46-46.77l4.08,3.06C162.52,317,123,332,111.71,335.35l-.73.22Z"/><path class="cls-1" d="M14.91,235.18c-3.23-11.8-4.95-23-4.81-48.16.14-25.82,2.23-47.19,4.22-55l.33-1.29,1.24-.47c2.81-1.05,8.68-2.89,20.68-5.63,1.51-.31,36.31-7.45,74.43-7.45l.11,5.1C83.09,123.57,44.53,133.24,25,140c-5.33,25.56-6.32,83.77-5.13,94.22Z"/><path class="cls-1" d="M10.1,187c.14-25.82,2.23-47.19,4.22-55l.33-1.29,1.24-.47c2.81-1.05,8.68-2.89,20.68-5.63,1.51-.31,36.3-7.45,74.43-7.45l.11,5.1c-30.07,1.33-72.2,7.75-90,13.67-2.42,12.48-3.42,24.23-4.38,35.61-.47,5.51-.91,10.71-1.5,15.72Z"/><path class="cls-1" d="M202.08,234.22c1.19-10.45.2-68.66-5.13-94.22-19.5-6.76-58.06-16.43-86.08-17.67l.11-5.1c38.12,0,72.92,7.14,74.38,7.44,12,2.75,17.92,4.59,20.73,5.64l1.25.47.33,1.29c2,7.76,4.07,29.13,4.21,55,.14,25.19-1.58,36.36-4.81,48.16Z"/><path class="cls-1" d="M206.8,187.33c-.59-5-1-10.21-1.5-15.72-1-11.38-2-23.13-4.38-35.61-17.85-5.92-60-12.34-90-13.67l.11-5.1c38.13,0,72.92,7.14,74.38,7.44,12,2.75,17.92,4.59,20.73,5.64l1.25.47.33,1.29c2,7.76,4.07,29.13,4.21,55Z"/></g><g id="NAPIS"><path class="cls-1" d="M42,277.6h-.79l10-32.23h61.29l-.17,57.46-1.83.54c-13.76,4-28.66,8.17-45.53,12.64L63,326l-1.52.43c-10.76,3-21.89,6.05-33.09,9.05L24,336.7ZM71.44,282c3.79-1.13,6.62-2,10.7-3.24l.14-1.15h-10Z"/><path class="cls-1" d="M38.26,280.6h-.8l12.29-38.23h65l.62,62.69-6.28,1.82c-13.29,3.78-27.19,7.59-41.33,11.36L66,328.19,59.56,330c-10.17,2.83-15.26,4.22-25.95,7.05l-10,2.64-4.48,1.16Zm-2.12,44.63c7.25-2,12-3.28,19.54-5.42l2.06-10.15,1.53-.41c16.62-4.41,31.34-8.51,44.9-12.48l.68-43.3H56.42l-4.74,16H91L89.4,284.88l-1.61.5c-8.81,2.69-13.24,4-22.6,6.72l-4,1.16,1.61-8-14.93-.07Z"/><path class="cls-1" d="M195.6,335.51c-11.22-3-22.39-6-33.19-9.05L160.9,326l-2-10c-14.91-3.92-30.28-8.17-45.7-12.65l-1.81-.53-.83-57.2h26.36l4.31,33.1c4.15,1.27,7,2.14,10.83,3.27l-7.31-36.37h26.52l28.83,91.07Z"/><path class="cls-1" d="M200.45,339.68c-4-1.06-6.07-1.58-10-2.64-10.72-2.83-15.82-4.22-26-7.05l-6.43-1.8-1.88-9.95c-14.2-3.76-28.14-7.58-41.47-11.35l-6.28-1.82-.12-62.43h30.65l4.84,33.86c1.79.56,3.22,1,4.8,1.47l-6.65-35.33h30.8L205,340.85ZM168.16,319.8c7.59,2.15,12.35,3.46,19.59,5.42L166,253.75H154l8.46,39.56-4.09-1.18c-9.42-2.72-13.89-4-22.78-6.75l-1.59-.49-3.66-31.14H118.22l1.18,43c15.22,4.43,30.37,8.63,45.07,12.5l1.52.4Z"/><path class="cls-1" d="M41.35,297l4.32-14.79H66.28l-1.47,6.94c8.14-2.33,13.13-3.8,21.81-6.44l.73-7.57h20.22l-.6,23.83-1.79.53c-14.34,4.17-29.43,8.4-44.83,12.56l-.3.08L57.9,322.25l-1.47.42c-7.86,2.24-11.76,3.33-19.9,5.55l-4.35,1.19Z"/><rect class="cls-1" x="155.27" y="277.52" width="5.1" height="12.3" transform="translate(-55.83 39.27) rotate(-12.07)"/><path class="cls-1" d="M187.38,328.22c-8.16-2.22-12.08-3.31-20-5.55l-1.46-.41-2.27-10.15-.31-.08c-15.49-4.18-30.62-8.41-45-12.57l-1.77-.52-.88-23.82,2.64,0H136l.82,7.56c8.55,2.59,13,3.91,21.75,6.4l-3.12-14H175.8l16,54.32Z"/><path class="cls-1" d="M190.86,331.35,182.2,329l1.34-4.93,8.65,2.35Z"/><path class="cls-1" d="M157.52,312.69l-5.57-1.5,1.33-4.93,5.56,1.5Z"/><path class="cls-1" d="M161.65,313.78l-4.13-1.09,1.32-4.93,5.63,1.49,1.52.4,2.49,11.66-5,1.07Z"/><path class="cls-1" d="M35.63,317.19l1.43-.36c7-1.77,13.29-3.38,19.26-4.93l4-1L57.9,322.25l-1.47.42c-7.86,2.24-11.76,3.33-19.9,5.55l-4.35,1.19Z"/><path class="cls-1" d="M187.38,328.22c-8.16-2.22-12.08-3.31-20-5.55l-1.46-.41-2.42-10.81,4.06,1.07c6.66,1.77,13.19,3.47,19.4,5.06l1.41.36,3.38,11.48Z"/><path class="cls-1" d="M190.86,331.35,182.2,329l1.34-4.93,8.65,2.35Z"/><rect class="cls-1" x="162.63" y="314.22" width="5.1" height="7.71" transform="translate(-62.89 41.59) rotate(-12.08)"/></g><g id="WINGS"><path class="cls-1" d="M170.11,174.26A20.32,20.32,0,0,1,159.84,171a60.4,60.4,0,0,1-5.76-4l2.85-2.69.07-.73.06-3.52a41.06,41.06,0,0,1,6.92,1.64c4.79,1.39,9.35,5,10.61,7.5a3.21,3.21,0,0,1-1.94,4.75A7.85,7.85,0,0,1,170.11,174.26Zm-7.89-7.81.33.21a17.41,17.41,0,0,0,4.41,2,16.33,16.33,0,0,0-4.4-2.1Z"/><path class="cls-1" d="M170.34,173.68a19.8,19.8,0,0,1-10.28-3.24c-1.91-1.2-4.43-2.92-5.29-3.61l-1.43-1.15,2-5.55,2.67,1.69a64.26,64.26,0,0,0,7.18,3.75,62.21,62.21,0,0,0,7.47,2.85l9,2.54-10,2.64-.18,0A9.82,9.82,0,0,1,170.34,173.68Z"/><path class="cls-1" d="M171.14,169.39a20.9,20.9,0,0,1-9.65-2.66,60.12,60.12,0,0,1-6-3.67l2.68-2.86,0-.73L158,156a40.33,40.33,0,0,1,7,1.21c4.86,1.09,9.64,4.41,11.06,6.83a3.38,3.38,0,0,1,.43,2.73,3.34,3.34,0,0,1-2.08,2.14A9.06,9.06,0,0,1,171.14,169.39Zm-7.55-7.33.34.19a17.3,17.3,0,0,0,4.51,1.71,16.13,16.13,0,0,0-4.52-1.83Z"/><path class="cls-1" d="M171.32,168.81a20.51,20.51,0,0,1-9.65-2.64c-2-1.07-4.6-2.64-5.5-3.27l-1.5-1.06,1.7-5.66,2.77,1.52a69.61,69.61,0,0,0,15,5.68l9.07,2-9.79,3.25-.19,0A11.44,11.44,0,0,1,171.32,168.81Z"/><path class="cls-1" d="M172.79,165.27a20.92,20.92,0,0,1-9.65-2.67,58.31,58.31,0,0,1-6-3.67l2.67-2.86,0-.73-.16-3.51a38.9,38.9,0,0,1,7,1.2c4.86,1.09,9.64,4.41,11.06,6.83a3.38,3.38,0,0,1,.43,2.73,3.34,3.34,0,0,1-2.08,2.14A9,9,0,0,1,172.79,165.27Zm-7.55-7.34.34.19a17.22,17.22,0,0,0,4.52,1.71,16,16,0,0,0-4.53-1.82Z"/><path class="cls-1" d="M173,164.68a20.46,20.46,0,0,1-9.64-2.63c-2-1.08-4.6-2.64-5.5-3.28l-1.5-1.06,1.7-5.66,2.77,1.52a62.84,62.84,0,0,0,7.39,3.29,60.64,60.64,0,0,0,7.64,2.39l9.06,2-9.78,3.25-.19,0A10.54,10.54,0,0,1,173,164.68Z"/><path class="cls-1" d="M174.12,161.12a21.13,21.13,0,0,1-9.4-2.46,58.32,58.32,0,0,1-6.08-3.53l2.62-2.92v-.73L161,148a40.22,40.22,0,0,1,7,1.05c4.88,1,9.73,4.2,11.2,6.59a3.43,3.43,0,0,1,.49,2.72,3.37,3.37,0,0,1-2,2.18A9.35,9.35,0,0,1,174.12,161.12Zm-7.4-7.17.34.18a17.2,17.2,0,0,0,4.56,1.61,16.27,16.27,0,0,0-4.56-1.72Z"/><path class="cls-1" d="M174.27,160.53a20.74,20.74,0,0,1-9.38-2.42c-2-1-4.66-2.54-5.57-3.16l-1.52-1,1.57-5.69,2.8,1.46a66.46,66.46,0,0,0,7.47,3.13,60.66,60.66,0,0,0,7.69,2.22l9.1,1.79-9.71,3.47-.19,0A11.87,11.87,0,0,1,174.27,160.53Z"/><path class="cls-1" d="M175.23,157.08a22.29,22.29,0,0,1-9.65-2.43,61.93,61.93,0,0,1-6.23-3.53l2.61-3v-.66l-.23-3.52a43.09,43.09,0,0,1,7.2,1.05c5.06,1,10,4.23,11.51,6.63a3.31,3.31,0,0,1,.47,2.7,3.35,3.35,0,0,1-2,2.15A9.52,9.52,0,0,1,175.23,157.08Zm-7.71-7.17.35.18a18.14,18.14,0,0,0,4.82,1.65A17.22,17.22,0,0,0,168,150Z"/><path class="cls-1" d="M175.35,156.5a21.68,21.68,0,0,1-9.59-2.41c-2.06-1-4.79-2.53-5.72-3.15l-1.57-1,1.58-5.57,2.72,1.27c.06,0,5.4,2.54,8.48,3.59a60.22,60.22,0,0,0,7.2,1.81l9.53,1.75-10.15,3.51-.18,0A12.36,12.36,0,0,1,175.35,156.5Z"/><path class="cls-1" d="M177.13,152.37a24.8,24.8,0,0,1-10.43-2.54,66,66,0,0,1-6.81-3.69l2.67-3.19v-.64l-.22-3.54a49.68,49.68,0,0,1,7.83,1.1c5.51,1,11,4.52,12.53,7a3.33,3.33,0,0,1,.46,2.73,3.4,3.4,0,0,1-2,2.13A10.48,10.48,0,0,1,177.13,152.37Zm-9.53-7.78,1.31.64a20.42,20.42,0,0,0,6.3,1.9,19.65,19.65,0,0,0-6-2.24Q168.33,144.71,167.6,144.59Z"/><path class="cls-1" d="M177.28,151.75a24.28,24.28,0,0,1-10.39-2.51c-2.25-1.09-5.24-2.66-6.27-3.31l-1.63-1,1.68-5.7,2.72,1.35a70.13,70.13,0,0,0,8.42,3.49c4.17,1.24,8.84,2.2,8.89,2.2l9.36,1.91-10.14,3.37-.17,0A13.28,13.28,0,0,1,177.28,151.75Z"/><path class="cls-1" d="M178,147.5a26.93,26.93,0,0,1-10.29-2.19,72.83,72.83,0,0,1-7.52-3.62l2.58-3.4,0-.84-.43-3.54c.48,0,2.26-.1,8.48.75,5.92.8,12,4.23,13.79,6.8a3.45,3.45,0,0,1,.64,2.77,3.49,3.49,0,0,1-2,2.31A12.23,12.23,0,0,1,178,147.5Zm-11.27-8.21c.93.43,2,.89,3,1.32a21.42,21.42,0,0,0,8,1.78,21.74,21.74,0,0,0-7.65-2.67C168.78,139.53,167.67,139.4,166.76,139.29Z"/><path class="cls-1" d="M178.1,146.81a26.16,26.16,0,0,1-10.18-2.16c-2.49-1.06-5.81-2.61-6.95-3.26l-.15-.09c-1.12-.74-3-2-2.38-4a2.65,2.65,0,0,1,2.56-1.86c.71,0,1.57.22,4.3,1.44,5.85,2.61,17.11,4.16,17.22,4.17l9.59,1.3-10.1,4-.18,0A15.82,15.82,0,0,1,178.1,146.81Z"/><path class="cls-1" d="M178.63,143.25a27.16,27.16,0,0,1-9.45-1.78,70,70,0,0,1-7.67-3.3l2.43-3.5-.08-.84-.57-3.51c.47-.08,2.25-.2,8.5.38,6,.56,12.18,3.72,14.06,6.21a3.41,3.41,0,0,1,.76,2.74,3.46,3.46,0,0,1-1.86,2.39A13.05,13.05,0,0,1,178.63,143.25Zm-10.69-7.75c.95.4,2,.81,3,1.2a21.68,21.68,0,0,0,8.11,1.43,22,22,0,0,0-7.76-2.35Z"/><path class="cls-1" d="M178.65,142.56a26.83,26.83,0,0,1-9.32-1.75c-2.54-.95-5.91-2.36-7.08-3l-.1,0-.09-.06c-1.11-.69-3.17-2-2.57-4.1a2.71,2.71,0,0,1,2.65-1.93,11.41,11.41,0,0,1,3.69,1c5.38,2,17.95,3.88,18.07,3.9l8.6,1.28-9,4.07-.17.05A17.59,17.59,0,0,1,178.65,142.56Z"/><path class="cls-1" d="M177.28,137.64a28.66,28.66,0,0,1-6.15-.68,71.18,71.18,0,0,1-8-2.22l1.93-3.8-.2-.82-1.05-3.4c.46-.14,2.21-.51,8.48-.79,6-.28,12.57,2,14.78,4.2a3.41,3.41,0,0,1,1.12,2.62,3.46,3.46,0,0,1-1.51,2.62C184.93,136.67,181.46,137.64,177.28,137.64Zm-8.2-6.43c1,.26,2.09.53,3.17.77a21.58,21.58,0,0,0,8.23.3,22.12,22.12,0,0,0-8-1.26Z"/><path class="cls-1" d="M177.23,137a27.54,27.54,0,0,1-6-.67c-2.65-.6-6.18-1.53-7.42-2l-.43-.15-.34-.28c-1.59-1.29-3.12-2.86-2.43-4.8a2.84,2.84,0,0,1,2.79-1.86,9.78,9.78,0,0,1,3.24.78,39.28,39.28,0,0,0,13.54,2.42,28.78,28.78,0,0,0,4.43-.3l1.81,4.67-1,.64-.17.07A20.29,20.29,0,0,1,177.23,137Z"/><path class="cls-1" d="M176.54,132.56a28.3,28.3,0,0,1-5.23-.49,71.13,71.13,0,0,1-8.12-1.93l1.79-3.86-.22-.82-1.16-3.37c.45-.15,2.18-.57,8.44-1.08,6-.47,12.64,1.57,14.92,3.7a3.28,3.28,0,0,1-.21,5.25C185,131.42,181.14,132.56,176.54,132.56Zm-7.48-6.15c1,.22,2.11.45,3.2.65a21.43,21.43,0,0,0,8.23,0,21.89,21.89,0,0,0-8-1C171.09,126.21,170,126.31,169.06,126.41Z"/><path class="cls-1" d="M176.49,131.88a27.29,27.29,0,0,1-5.15-.49c-2.66-.5-6.23-1.31-7.48-1.7-2.91-.87-5.23-1.56-4.87-4a2.69,2.69,0,0,1,2.88-2.26,43.27,43.27,0,0,1,6.66,1,56.15,56.15,0,0,0,10.13,1,20.14,20.14,0,0,0,5.57-.57l2.24,4.54-1,.67-.16.08A21.24,21.24,0,0,1,176.49,131.88Z"/><path class="cls-1" d="M175.8,127.19a33.7,33.7,0,0,1-5.14-.39,80.18,80.18,0,0,1-8.95-1.78l1.84-4.45-1.13-3.72c.4-.12,2.24-.59,9.51-1.24,7-.63,14.39,1.42,16.58,3.66a3.21,3.21,0,0,1,1,2.64,3.51,3.51,0,0,1-1.49,2.42C185.93,125.93,181.21,127.19,175.8,127.19Zm-8-6c1.13.21,2.37.42,3.6.61a28.56,28.56,0,0,0,10.11-.26,27.34,27.34,0,0,0-9.15-.81C170.49,120.86,169,121,167.83,121.15Z"/><path class="cls-1" d="M175.83,126.49a34.4,34.4,0,0,1-5.07-.38c-3.23-.5-7-1.23-8.28-1.56l-1.1-.3-.52-1a3.63,3.63,0,0,1,0-3.49,3.35,3.35,0,0,1,3-1.55,9.6,9.6,0,0,1,3.36.77c1.05.4,3.26.88,7.78.88a99.77,99.77,0,0,0,10.94-.7l1.62,4.73-1.16.68-.14.06A26.86,26.86,0,0,1,175.83,126.49Z"/><path class="cls-1" d="M175.23,122.39a34.06,34.06,0,0,1-4.46-.29,83.29,83.29,0,0,1-9-1.6l1.77-4.49-1.21-3.69c.39-.14,2.23-.63,9.48-1.43,7-.78,14.42,1.13,16.65,3.32a3.23,3.23,0,0,1,1.05,2.63,3.52,3.52,0,0,1-1.44,2.44C185.93,121,180.92,122.39,175.23,122.39Zm-7.4-5.88c1.13.18,2.38.37,3.61.53a28.06,28.06,0,0,0,10.1-.46,27.33,27.33,0,0,0-9.16-.62C170.48,116.17,169,116.35,167.83,116.51Z"/><path class="cls-1" d="M175.27,121.7a34.26,34.26,0,0,1-4.41-.29c-3-.4-6.93-1.06-8.31-1.4l-.33-.08-.3-.17c-.81-.45-3.28-1.82-2.68-4.13a2.89,2.89,0,0,1,3.11-2.11,18.25,18.25,0,0,1,4.15.66,38.27,38.27,0,0,0,8.35.77,82.41,82.41,0,0,0,11.09-.81l1.73,4.69-1.14.71-.14.06A27.19,27.19,0,0,1,175.27,121.7Z"/><path class="cls-1" d="M174.13,117.52c-.89,0-1.78,0-2.68-.1a81.69,81.69,0,0,1-9.06-1.14l1.53-4.57-1.4-3.63c.39-.15,2.19-.75,9.4-1.92,7-1.14,14.45.39,16.8,2.46a3.2,3.2,0,0,1,1.18,2.57,3.51,3.51,0,0,1-1.31,2.52C186.32,115.72,180.54,117.52,174.13,117.52ZM168.22,112c1.14.13,2.4.25,3.64.35a28.49,28.49,0,0,0,10.06-1,27.15,27.15,0,0,0-9.18-.15C170.86,111.5,169.38,111.77,168.22,112Z"/><path class="cls-1" d="M174.18,116.82c-.89,0-1.79,0-2.68-.1-3.26-.27-7.11-.73-8.37-1-2.28-.35-4.73-.72-4.54-3.27.12-1.63,1.32-2.46,3.54-2.46.87,0,2.18,0,4,.16,1,0,2,.08,3.11.08a110,110,0,0,0,17-1.59l1.92,4.6-1.11.77-.13.07A28.89,28.89,0,0,1,174.18,116.82Z"/><path class="cls-1" d="M171.69,112.69h-.63a88.6,88.6,0,0,1-9.77-.59l1.23-4.77-1.58-3.57c.4-.18,2.29-.91,9.94-2.57,7.27-1.59,15.56-.52,18.12,1.49a3.22,3.22,0,0,1,1.32,2.48,3.49,3.49,0,0,1-1.15,2.58C186.76,110.15,179.46,112.69,171.69,112.69Zm-5.17-5.27c1.41.07,3,.13,4.63.16a32.07,32.07,0,0,0,11.22-1.8,30.28,30.28,0,0,0-10.4.38C169.6,106.68,167.84,107.09,166.52,107.42Z"/><path class="cls-1" d="M171.07,112c-3.53-.06-7.69-.3-9-.46l-.22,0-.22-.07c-2.86-.88-3.26-2.41-3.09-3.55.38-2.51,3.23-2.51,4.76-2.51.79,0,1.76,0,2.9.09.54,0,1.09,0,1.66,0,7.88,0,18.56-2.57,18.66-2.6l2.15,4.51-1.13.86-.13.08A33.13,33.13,0,0,1,171.73,112Z"/><path class="cls-1" d="M161.53,108.19h-.33l.43-4.94-.21,2.4.15-2.5-1.94-3.2a84.63,84.63,0,0,1,10-4.09c7.47-2.76,16.25-3,19.1-1.33a3.17,3.17,0,0,1,1.63,2.21,3.42,3.42,0,0,1-.72,2.66c-2.11,2.87-9.65,6.68-18.17,7.82C168.72,107.58,163.27,108.19,161.53,108.19Zm20.68-9.58a34.58,34.58,0,0,0-10.84,2c-2.38.88-4.16,1.57-5.49,2.1,1.49-.15,3.2-.35,4.88-.58A35.47,35.47,0,0,0,182.21,98.61Z"/><path class="cls-1" d="M161.61,107.46c-2.58-.14-5.8-.31-5.88-3.11s3-3.26,9.1-3.93c13-1.42,21.09-5.27,21.17-5.31l2.89,4.13-1,1-.12.09c-2.86,2.2-8.87,5.13-16.37,6.14-3.69.49-8.07.92-9.51,1h-.23Z"/><path class="cls-1" d="M161.3,104.75l-.29-2.53-.34-2.53h0l-2.2-2.75c.27-.21,2-1.5,10-5.92,7.05-3.88,16.82-6.33,20.1-5a3.05,3.05,0,0,1,1.85,1.87,3.3,3.3,0,0,1-.28,2.56c-1.61,3.17-9.33,8.48-18.24,11.33C168.48,102.86,162.46,104.62,161.3,104.75Zm20.52-13.37A43.65,43.65,0,0,0,171,95.49c-2,1.09-3.56,2-4.8,2.69,1.34-.4,2.79-.84,4.22-1.3A44.81,44.81,0,0,0,181.82,91.38Z"/><path class="cls-1" d="M160,103.68a3.15,3.15,0,0,1-1.59-3.12c.32-2.36,3-3.48,6.87-4.44,6.37-1.58,20.67-9.25,20.82-9.33l3.17,3.88-1,1.18-.1.09c-2.73,2.66-8.68,6.65-16.44,9.13-3.85,1.23-8.42,2.53-9.94,2.88l-1,.21Z"/><path class="cls-1" d="M161.07,101.08,160,96.3l.52,2.3-.57-2.35-2.55-2.67c.25-.24,1.91-1.74,9.91-7.16,6.94-4.71,17.13-8.42,20.58-7.5a3,3,0,0,1,2,1.59,3.17,3.17,0,0,1,.06,2.57c-1.24,3.36-8.76,9.66-18,13.67C168.43,98.29,162.27,100.81,161.07,101.08Zm20.47-16a48.14,48.14,0,0,0-11.39,5.61c-2.07,1.41-3.69,2.53-5,3.43,1.48-.61,3.13-1.3,4.75-2A49.65,49.65,0,0,0,181.54,85Z"/><path class="cls-1" d="M159.86,100.22a3.55,3.55,0,0,1-2.61-3.33c0-2.53,2.72-3.7,5.61-4.58,4.87-1.49,18-9.43,22.65-12.36L189,83.56l-.89,1.29L188,85c-2.58,3-8.39,7.7-16.29,11.14-3.94,1.71-8.63,3.59-10.19,4.12l-.83.28Z"/><path class="cls-1" d="M161.08,97.6,159.15,93l.94,2.24-1-2.27-3.17-2.37c.23-.31,1.75-2.22,9.49-9.59,7.34-7,17.45-12.32,20.95-12a3.07,3.07,0,0,1,2.28,1.19,3.21,3.21,0,0,1,.55,2.56c-.65,3.71-7.8,12-17,18.07C168.55,93.2,162.28,97.1,161.08,97.6Zm20.5-21.78A55,55,0,0,0,169,84.71c-2.86,2.72-4.83,4.66-6.17,6,1.95-1.2,4.37-2.72,6.61-4.19A55.2,55.2,0,0,0,181.58,75.82Z"/><path class="cls-1" d="M160.09,96.92c-3.33,0-4.23-1.65-4.47-2.63-.67-2.76,2.35-4.59,5.51-6.24,8.27-4.31,22.94-17.44,23.08-17.57l4,3L187.5,75l-.08.12c-2.23,3.68-7.68,9.83-15.67,15.06-4,2.61-8.78,5.54-10.39,6.42l-.55.29Z"/><path class="cls-1" d="M159.29,93.05l-2.16-4,.94,1.75-1-1.76-3.31-2.35c.14-.2,1.59-2.18,9.62-10.55,6.92-7.2,17.73-14.5,21.39-14.52a2.94,2.94,0,0,1,3,3.29c-.29,3.49-7.43,12.57-17.23,20C166.42,88.08,160.41,92.44,159.29,93.05Zm19.79-23.24a69.75,69.75,0,0,0-12,9.87c-1.94,2-3.49,3.66-4.71,5,1.62-1.18,3.4-2.5,5.08-3.78A70.31,70.31,0,0,0,179.08,69.81Z"/><path class="cls-1" d="M156.05,88.46l2.15-3,24.51-22.36,4,3L186,67.67l-.07.1c-2.24,3.82-7.74,10.45-15.84,16.62-4,3-9,6.64-10.59,7.7Z"/><path class="cls-1" d="M158.85,89.27l-2.79-3.87,1.3,1.8L156,85.39l-3.57-1.91c.12-.23,1.38-2.5,8.68-12.36,6.28-8.49,16.57-17.6,20.39-18.05A3,3,0,0,1,184.93,56c.14,3.68-6.4,14.4-15.37,23.24C165.65,83.11,159.93,88.49,158.85,89.27Zm18.38-27.71a73.58,73.58,0,0,0-12,12.59c-2.31,3.12-4,5.45-5.2,7.17,1.8-1.69,3.93-3.74,5.93-5.7A73.57,73.57,0,0,0,177.23,61.56Z"/><path class="cls-1" d="M152.77,85.82l26.87-30.95L184,57.31l-.56,1.76-.05.11c-1.85,4.31-6.72,12-14.37,19.56-3.79,3.73-8.52,8.16-10.07,9.49l-1.65,1.41Z"/><path class="cls-1" d="M158.86,82.66l-3.32-3.87,1.66,1.93-1.67-1.92h0l-3.38-1.46c.1-.24,1.17-2.62,7.62-13.09,5.59-9.07,15-19,18.71-19.66a3,3,0,0,1,2.39.55A3,3,0,0,1,182,47.3c.38,3.69-5.28,15-13.42,24.5C165.07,76,159.87,81.79,158.86,82.66ZM174.71,53.6a74.43,74.43,0,0,0-10.58,13.31c-2,3.18-3.41,5.59-4.47,7.4,1.57-1.76,3.38-3.83,5.07-5.82A74.77,74.77,0,0,0,174.71,53.6Z"/><path class="cls-1" d="M152.65,79.6l24-33,4.55,2.09-.43,1.81,0,.11c-1.52,4.49-5.76,12.61-12.69,20.75-3.44,4-7.74,8.83-9.16,10.28l-1.59,1.62Z"/><path class="cls-1" d="M156.22,81.88l-4-3.13,2,1.55-2-1.55-3.78-1c.08-.29.92-3.2,6.56-16.66C159.9,49.41,169,35.61,172.67,34.22a3,3,0,0,1,2.37.07,3,3,0,0,1,1.54,1.88c1.12,3.72-3.44,17.75-11.22,31C162.12,72.63,157.16,80.68,156.22,81.88Zm14-37.73A104.22,104.22,0,0,0,159.73,63c-2.07,5-3.48,8.45-4.43,10.87,1.68-2.7,3.78-6.16,5.67-9.36A100.16,100.16,0,0,0,170.22,44.15Z"/><path class="cls-1" d="M153,81.67l-.35,0h-1.5l-.73-1.31c-.76-1.37-.76-1.37,3.85-8.8S171,37,171.07,36.73L175.94,38l-.23,2.12,0,.11c-1.05,5.37-4.56,15.53-11,26.47-3.21,5.45-7.27,12-8.61,14l-1.25,1.84Z"/><path class="cls-1" d="M154.4,78.79l-4.31-2.72a.59.59,0,0,0,0-.08l-4-.67c0-.31.63-3.48,5.11-18.33,3.89-12.87,11.92-28.41,15.62-30.24a2.93,2.93,0,0,1,4.11,1.58c1.53,3.71-1.85,19.31-8.5,33.87C159.61,68.38,155.26,77.43,154.4,78.79Zm11.15-42.25a110.19,110.19,0,0,0-9.46,21.92c-2,6.61-3.2,10.85-3.92,13.51,1.56-3.18,3.71-7.72,5.62-11.89A106.52,106.52,0,0,0,165.55,36.54Z"/><path class="cls-1" d="M147.38,77.44l18.12-48,4.94.92v2.37c-.53,5.79-3.14,16.91-8.74,29.17-2.79,6.12-6.35,13.49-7.55,15.75l-1,2Z"/><path class="cls-1" d="M152.87,74l-4.59-2.22,0-.08-4.09-.21c0-.32.23-3.53,3-18.8,2.43-13.22,8.67-29.56,12.15-31.79a3,3,0,0,1,2.35-.42,3.06,3.06,0,0,1,1.9,1.53c1.94,3.51.32,19.39-4.66,34.61C156.88,63.12,153.58,72.59,152.87,74Zm6.36-43.23a110.58,110.58,0,0,0-7,22.84c-1.24,6.79-2,11.14-2.38,13.87,1.19-3.34,2.83-8.09,4.25-12.45A106.45,106.45,0,0,0,159.23,30.81Z"/><path class="cls-1" d="M145.75,73.49l12.63-49.77,5,.36.24,2.25v.11c.12,5.81-1.23,17.15-5.42,30-2.09,6.4-4.81,14.12-5.74,16.5L151.64,75Z"/><path class="cls-1" d="M149.24,72.93l-4.76-1.84a1.89,1.89,0,0,0,.06-.18l-4.47.13c0-.34-.06-3.83,1.61-20.62,1.44-14.5,6.71-32.7,10.25-35.41a3,3,0,0,1,4.39.77c2.38,3.6,2,20.89-2,37.78C152.61,60.74,149.87,71.3,149.24,72.93Zm3.43-48.59a119.15,119.15,0,0,0-5.91,26.58c-1,9.72-1.35,14.88-1.5,17.5,1-3.6,2.69-10.14,4.1-16.05A114.53,114.53,0,0,0,152.67,24.34Z"/><path class="cls-1" d="M141.93,72.86,151.16,18l5-.06.46,2.41v.11c.65,6.28.2,18.67-3.2,32.91-1.7,7.12-3.95,15.73-4.76,18.39L148,73.89Z"/><path class="cls-1" d="M145.58,69.82l-4.88-1.47a2,2,0,0,1,.06-.23l-4.64.49c0-.35-.37-4,0-21.5.38-16.48,4.67-34.67,7.78-37.45a3,3,0,0,1,4.47.43c2.74,3.53,3.74,21.44.91,39.25C148.1,56.93,146.11,68.09,145.58,69.82Zm-.16-51.18a123.18,123.18,0,0,0-4.17,28.59c-.26,11.45-.2,16.83-.13,19.19.71-3.54,2.07-11.1,3.15-17.88A117.83,117.83,0,0,0,145.42,18.64Z"/><path class="cls-1" d="M138.2,70.27l5.2-57.54,5-.44.66,2.45,0,.11c1.17,6.46,1.69,19.33-.7,34.35-1.2,7.51-2.85,16.61-3.47,19.44l-.49,2.19Z"/><path class="cls-1" d="M141.54,64.78l-5-1c0-.06,0-.14,0-.25l-4.57.93c-.07-.35-.72-3.91-1.9-21.42C129,26.57,131.63,8.06,134.48,5a3,3,0,0,1,2.22-1A3.09,3.09,0,0,1,139,5c3.05,3.26,5.65,21,4.44,39C142.89,51.71,141.91,63,141.54,64.78Zm-4.77-51a123.21,123.21,0,0,0-1.57,28.86c.76,11.37,1.31,16.76,1.59,19.12.39-3.59,1.06-11.25,1.52-18.08A117.59,117.59,0,0,0,136.77,13.81Z"/><path class="cls-1" d="M134.23,65.89V8.11l5-.89.88,2.39,0,.1c1.74,6.33,3.41,19.1,2.39,34.28-.52,7.58-1.34,16.8-1.71,19.67l-.28,2.23Z"/><path class="cls-1" d="M156,171l-10.4-5.66.32-1.81c0-.17.79-4.39,3.81-15,7.74-27.36,7.41-34.69,6-42.74-3.68-21.31-10.37-26.1-10.43-26.14L146.89,77l-2-2.38,3.87-3.32L163.2,88.09l3.65,32.78Zm-4.68-8.35,1.13.61,6.18-28.58c-1,4.34-2.33,9.34-4,15.22C152.79,156.46,151.8,160.54,151.33,162.65Zm10.11-44.22a88.74,88.74,0,0,1-1.44,9.94l1.68-7.77ZM156.3,87.9A74.12,74.12,0,0,1,159,96.38l-.69-6.15Z"/><polygon class="cls-1" points="126.98 83.74 126.98 62.92 135.26 62.92 135.26 83.74 131.12 84.83 126.98 83.74"/><path class="cls-1" d="M147.6,166.43l.62-2c.07-.19,6.23-19.93,8.63-33.11,2-11,1.87-21.37.83-26.72C155.49,93.36,152,85.21,147.44,81a8.27,8.27,0,0,0-5-2.08,5.83,5.83,0,0,0-2.2.44C136,81.08,135,82.89,135,82.91a.66.66,0,0,0,0-.1l-4.88-1V64.19l1-.76c.86-.65,2.95-1.34,6-2a21.6,21.6,0,0,1,4.64-.54c5.93,0,14.27,3,20.34,17.48,7.83,18.6,8.53,31.2,7.09,48-1.15,13.31-9.59,41.77-9.95,43l-.9,3Z"/><path class="cls-1" d="M129.53,68l-1-4.89a29.7,29.7,0,0,1,5.59-1.85,74.58,74.58,0,0,1,8-.38l.23,5.1s-3.2.27-5.13.67a18.58,18.58,0,0,0-3.4,1.12l-.51.23h-3.73Z"/><path class="cls-1" d="M130.16,78.49V63.77l7.69-3.22-1.17,4.89c-1.17,4.86-1.42,13-1.42,13.13Z"/><path class="cls-1" d="M52.57,174.26A7.85,7.85,0,0,1,50,173.9a3.21,3.21,0,0,1-1.94-4.75c1.26-2.5,5.83-6.11,10.61-7.5A40.86,40.86,0,0,1,65.63,160l0,2.55.11,1.73L68.6,167a60.4,60.4,0,0,1-5.76,4A20.3,20.3,0,0,1,52.57,174.26Zm7.89-7.81-.33.09a16.19,16.19,0,0,0-4.4,2.1,17.36,17.36,0,0,0,4.4-2Z"/><path class="cls-1" d="M52.34,173.68a9.52,9.52,0,0,1-1.13-.06l-.19,0-10-2.64L50,168.42a62.11,62.11,0,0,0,7.47-2.85,64.26,64.26,0,0,0,7.18-3.75l2.67-1.69,2,5.55-1.43,1.15c-.86.69-3.38,2.41-5.29,3.61A19.78,19.78,0,0,1,52.34,173.68Z"/><path class="cls-1" d="M51.54,169.39a9.1,9.1,0,0,1-3.31-.53A3.22,3.22,0,0,1,46.59,164c1.41-2.42,6.19-5.74,11-6.83a40.48,40.48,0,0,1,7-1.21l-.19,4.19.07-1.64v1.73l2.65,2.83a60.12,60.12,0,0,1-6,3.67A20.9,20.9,0,0,1,51.54,169.39Zm7.56-7.33-.34.07A16.13,16.13,0,0,0,54.24,164a17.3,17.3,0,0,0,4.51-1.71Z"/><path class="cls-1" d="M51.37,168.81a11.56,11.56,0,0,1-1.95-.16l-.18,0-9.8-3.25,9.08-2A63,63,0,0,0,56.15,161a63.55,63.55,0,0,0,7.4-3.29l2.77-1.52L68,161.84l-1.5,1.06c-.9.63-3.52,2.2-5.5,3.27A20.51,20.51,0,0,1,51.37,168.81Z"/><path class="cls-1" d="M49.89,165.27a9.08,9.08,0,0,1-3.31-.54,3.22,3.22,0,0,1-1.64-4.87c1.41-2.42,6.19-5.74,11.05-6.83a40,40,0,0,1,7-1.2L62.81,156l.07-1.64v1.73l2.65,2.83a59,59,0,0,1-6,3.67A20.92,20.92,0,0,1,49.89,165.27Zm7.56-7.34-.34.08a15.83,15.83,0,0,0-4.52,1.82,17.3,17.3,0,0,0,4.51-1.71Z"/><path class="cls-1" d="M49.72,164.68a10.61,10.61,0,0,1-1.95-.16l-.18,0-9.79-3.25,9.07-2a60.84,60.84,0,0,0,7.63-2.39,63.55,63.55,0,0,0,7.4-3.29l2.76-1.52,1.7,5.66-1.5,1.06c-.9.64-3.52,2.2-5.5,3.28A20.46,20.46,0,0,1,49.72,164.68Z"/><path class="cls-1" d="M48.56,161.12a9.29,9.29,0,0,1-3.6-.61,3.21,3.21,0,0,1-1.54-4.9c1.46-2.39,6.31-5.6,11.19-6.59a40.22,40.22,0,0,1,7-1.05l-.28,4.18.11-1.64,0,1.73L64,155.13A58.32,58.32,0,0,1,58,158.66,21.13,21.13,0,0,1,48.56,161.12ZM56,154l-.33.07a16.15,16.15,0,0,0-4.56,1.72,17.14,17.14,0,0,0,4.55-1.61Z"/><path class="cls-1" d="M48.41,160.53a12,12,0,0,1-2.26-.2l-.19,0-9.71-3.47L45.36,155A60.82,60.82,0,0,0,53,152.82a66.46,66.46,0,0,0,7.47-3.13l2.8-1.46,1.57,5.69-1.52,1c-.91.62-3.57,2.12-5.57,3.16A20.74,20.74,0,0,1,48.41,160.53Z"/><path class="cls-1" d="M47.45,157.08a9.55,9.55,0,0,1-3.68-.61,3.2,3.2,0,0,1-1.54-4.85c1.47-2.4,6.45-5.64,11.51-6.63a42.1,42.1,0,0,1,7.2-1.05l-.27,4.13.11-1.58,0,1.67,2.58,3a60.85,60.85,0,0,1-6.23,3.53A22.26,22.26,0,0,1,47.45,157.08Zm7.72-7.17-.44.09A17,17,0,0,0,50,151.74a18.2,18.2,0,0,0,4.81-1.65Z"/><path class="cls-1" d="M47.33,156.5a12.44,12.44,0,0,1-2.3-.19l-.18,0L34.7,152.76,44.24,151a60.72,60.72,0,0,0,7.2-1.81c3.07-1,8.42-3.56,8.47-3.59l2.72-1.27,1.58,5.57-1.57,1c-.93.62-3.66,2.12-5.72,3.15A21.68,21.68,0,0,1,47.33,156.5Z"/><path class="cls-1" d="M45.55,152.37a10.39,10.39,0,0,1-4-.66A3.21,3.21,0,0,1,40,146.85c1.51-2.46,7-5.94,12.54-7a49.23,49.23,0,0,1,7.83-1.1l-.17,2.55,0,1.66,2.64,3.16a65.75,65.75,0,0,1-6.8,3.69A24.88,24.88,0,0,1,45.55,152.37Zm9.53-7.78c-.49.09-1,.18-1.62.3a19.58,19.58,0,0,0-6,2.24,20.45,20.45,0,0,0,6.29-1.9Z"/><path class="cls-1" d="M45.4,151.75a13.28,13.28,0,0,1-2.47-.2l-.17,0-10.14-3.37L42,146.24s4.72-1,8.88-2.2a70.13,70.13,0,0,0,8.42-3.49L62,139.2l1.68,5.7-1.63,1c-1,.65-4,2.22-6.27,3.31A24.25,24.25,0,0,1,45.4,151.75Z"/><path class="cls-1" d="M44.66,147.5a12.16,12.16,0,0,1-5.25-1,3.43,3.43,0,0,1-2-2.31,3.39,3.39,0,0,1,.63-2.77c1.78-2.57,7.88-6,13.79-6.8,6.22-.84,8-.8,8.48-.75l-.52,4.32.22-1.78-.15,1.87,2.56,3.37a72.83,72.83,0,0,1-7.52,3.62A26.89,26.89,0,0,1,44.66,147.5Zm11.27-8.21c-.92.11-2,.24-3.37.43a21.6,21.6,0,0,0-7.65,2.67,21.5,21.5,0,0,0,8-1.78C54,140.18,55,139.72,55.93,139.29Z"/><path class="cls-1" d="M44.58,146.81a15.94,15.94,0,0,1-3.73-.39l-.18,0-10.09-4,9.58-1.3c.11,0,11.37-1.56,17.22-4.17,2.74-1.22,3.6-1.44,4.3-1.44a2.63,2.63,0,0,1,2.56,1.86c.61,2-1.26,3.28-2.38,4l-.07,0-.08,0c-1.14.65-4.45,2.2-7,3.26A26.16,26.16,0,0,1,44.58,146.81Z"/><path class="cls-1" d="M44.06,143.25A13.1,13.1,0,0,1,37.93,142a3.46,3.46,0,0,1-1.86-2.39,3.41,3.41,0,0,1,.76-2.74c1.88-2.49,8.12-5.65,14.06-6.21,6.25-.58,8-.46,8.5-.38L59,132.84l-.22,1.86,2.42,3.47a70.81,70.81,0,0,1-7.67,3.3A27.24,27.24,0,0,1,44.06,143.25Zm-.46-5.12a21.68,21.68,0,0,0,8.11-1.43c1-.39,2.08-.8,3-1.2l-3.38.28A22,22,0,0,0,43.6,138.13Z"/><path class="cls-1" d="M44,142.56a17.7,17.7,0,0,1-4.65-.57l-.17-.05-9-4.07,8.59-1.28c.13,0,12.7-1.91,18.07-3.9a11.53,11.53,0,0,1,3.69-1,2.7,2.7,0,0,1,2.65,1.93c.61,2.12-1.46,3.41-2.56,4.1l-.1.06-.09,0c-1.17.6-4.55,2-7.08,3A26.91,26.91,0,0,1,44,142.56Z"/><path class="cls-1" d="M45.41,137.64c-4.19,0-7.66-1-9.36-2.27a3.29,3.29,0,0,1-.39-5.24c2.21-2.2,8.83-4.47,14.79-4.2,6.27.28,8,.65,8.47.79l-.75,2.44L57.69,131l1.91,3.77A70.6,70.6,0,0,1,51.55,137,28.63,28.63,0,0,1,45.41,137.64Zm-3.2-5.36a21.54,21.54,0,0,0,8.22-.3c1.08-.24,2.17-.51,3.17-.77L50.21,131A22.06,22.06,0,0,0,42.21,132.28Z"/><path class="cls-1" d="M45.45,137a20.29,20.29,0,0,1-8-1.44l-.16-.07-1-.64,1.82-4.67a28.62,28.62,0,0,0,4.43.3A39.31,39.31,0,0,0,56.09,128a9.68,9.68,0,0,1,3.23-.78,2.85,2.85,0,0,1,2.8,1.86c.68,1.94-.85,3.52-2.43,4.8l-.35.28-.42.15c-1.25.43-4.78,1.36-7.42,2A27.7,27.7,0,0,1,45.45,137Z"/><path class="cls-1" d="M46.14,132.56c-4.6,0-8.43-1.14-10.21-2.6a3.47,3.47,0,0,1-1.42-2.68,3.42,3.42,0,0,1,1.22-2.57c2.28-2.13,9-4.17,14.91-3.7,6.26.51,8,.93,8.45,1.08l-1.43,4.11.59-1.7-.54,1.8,1.78,3.84a71.13,71.13,0,0,1-8.12,1.93A28.23,28.23,0,0,1,46.14,132.56Zm-4-5.48a21.48,21.48,0,0,0,8.24,0c1.08-.2,2.18-.43,3.19-.65-.92-.1-2-.2-3.38-.31A22,22,0,0,0,42.19,127.08Z"/><path class="cls-1" d="M46.19,131.88a21.24,21.24,0,0,1-8.82-1.73l-.16-.08-1-.67,2.27-4.53a20.6,20.6,0,0,0,5.54.56,56.34,56.34,0,0,0,10.14-1,42.93,42.93,0,0,1,6.66-1,2.68,2.68,0,0,1,2.87,2.26c.36,2.46-2,3.15-4.89,4-1.23.38-4.79,1.19-7.46,1.69A27.22,27.22,0,0,1,46.19,131.88Z"/><path class="cls-1" d="M46.88,127.19c-5.4,0-10.12-1.26-12.22-2.86a3.51,3.51,0,0,1-1.49-2.42,3.23,3.23,0,0,1,1-2.65c2.19-2.23,9.55-4.28,16.58-3.65,7.27.65,9.12,1.12,9.51,1.24l-1.16,3.64L61,125a80.4,80.4,0,0,1-9,1.78A33.6,33.6,0,0,1,46.88,127.19Zm-5.73-5.69a28.49,28.49,0,0,0,10.1.26c1.23-.19,2.48-.4,3.61-.61-1.17-.13-2.66-.29-4.56-.46A27.28,27.28,0,0,0,41.15,121.5Z"/><path class="cls-1" d="M46.85,126.49a26.86,26.86,0,0,1-10.49-1.88l-.14-.06-1.16-.68,1.63-4.73a99.47,99.47,0,0,0,10.93.7c4.53,0,6.73-.48,7.79-.88a9.5,9.5,0,0,1,3.35-.77,3.34,3.34,0,0,1,3,1.55,3.65,3.65,0,0,1,0,3.5l-.52,1-1.1.3c-1.24.33-5,1.06-8.28,1.56A34.4,34.4,0,0,1,46.85,126.49Z"/><path class="cls-1" d="M47.45,122.39c-5.69,0-10.7-1.39-12.85-3.11a3.52,3.52,0,0,1-1.44-2.44,3.23,3.23,0,0,1,1.05-2.63c2.24-2.19,9.63-4.09,16.65-3.32,7.26.8,9.09,1.29,9.48,1.43l-1.23,3.61,1.79,4.57a82.84,82.84,0,0,1-9,1.6A34.06,34.06,0,0,1,47.45,122.39Zm-6.31-5.81a28.06,28.06,0,0,0,10.1.46c1.23-.16,2.48-.35,3.61-.53-1.16-.16-2.65-.34-4.55-.55A27.35,27.35,0,0,0,41.14,116.58Z"/><path class="cls-1" d="M47.41,121.7a27.19,27.19,0,0,1-11.12-2.1l-.14-.06L35,118.83l1.74-4.69a82.6,82.6,0,0,0,11.09.81,38.24,38.24,0,0,0,8.34-.77,18.23,18.23,0,0,1,4.16-.66,2.9,2.9,0,0,1,3.11,2.11c.59,2.31-1.88,3.68-2.69,4.13l-.3.17-.33.08c-1.24.3-5.06,1-8.31,1.4A34.14,34.14,0,0,1,47.41,121.7Z"/><path class="cls-1" d="M48.56,117.52c-6.42,0-12.2-1.8-14.47-3.81a3.55,3.55,0,0,1-1.31-2.52A3.23,3.23,0,0,1,34,108.62c2.35-2.07,9.83-3.6,16.81-2.46,7.2,1.17,9,1.77,9.39,1.92l-1.42,3.54,1.55,4.66a84.15,84.15,0,0,1-9.06,1.14C50.33,117.49,49.44,117.52,48.56,117.52Zm-7.8-6.17a28.26,28.26,0,0,0,10.06,1c1.24-.1,2.5-.22,3.64-.35-1.15-.21-2.63-.48-4.51-.78A27.2,27.2,0,0,0,40.76,111.35Z"/><path class="cls-1" d="M48.5,116.82a28.84,28.84,0,0,1-12.73-2.71l-.14-.07-1.1-.77,1.91-4.6a110.51,110.51,0,0,0,17,1.59c1.09,0,2.13,0,3.1-.08,1.83-.11,3.13-.16,4-.16,2.23,0,3.42.83,3.54,2.46.2,2.55-2.26,2.92-4.63,3.29-1.17.22-5,.69-8.28,1C50.29,116.79,49.39,116.82,48.5,116.82Z"/><path class="cls-1" d="M51,112.69c-7.77,0-15.07-2.54-17.48-5a3.49,3.49,0,0,1-1.15-2.58,3.22,3.22,0,0,1,1.32-2.48c2.56-2,10.85-3.08,18.12-1.49,7.65,1.66,9.54,2.39,9.94,2.57l-1.55,3.38h0l1.18,5a88.56,88.56,0,0,1-9.76.59Zm-10.67-6.91a31.73,31.73,0,0,0,11.21,1.8c1.6,0,3.22-.09,4.63-.16-1.31-.33-3.08-.74-5.45-1.26A30.22,30.22,0,0,0,40.32,105.78Z"/><path class="cls-1" d="M51,112a33.08,33.08,0,0,1-15.62-3.65l-.14-.08-1.12-.86,2.14-4.51c.11,0,10.78,2.6,18.66,2.6.57,0,1.13,0,1.66,0,1.14-.06,2.11-.09,2.9-.09,1.53,0,4.38,0,4.76,2.51.17,1.14-.22,2.67-3.09,3.55l-.21.07-.23,0c-1.36.16-5.52.4-9,.46Z"/><path class="cls-1" d="M61.15,108.19c-1.73,0-7.19-.61-9.91-1-8.51-1.14-16.06-4.95-18.17-7.82a3.42,3.42,0,0,1-.72-2.66A3.17,3.17,0,0,1,34,94.52c2.86-1.65,11.63-1.43,19.1,1.33,7.94,2.93,9.7,3.92,10,4.09l-2,3.15h0l.37,5.09ZM40.47,98.61a35.47,35.47,0,0,0,11.45,3.54c1.69.23,3.4.43,4.88.58-1.32-.53-3.11-1.22-5.49-2.1A34.53,34.53,0,0,0,40.47,98.61Z"/><path class="cls-1" d="M60.85,107.46c-1.45,0-5.83-.48-9.51-1-7.51-1-13.52-3.94-16.38-6.14l-.11-.09-1.05-1,2.88-4.12c.08,0,8.21,3.88,21.17,5.3,6.12.67,9.19,1,9.11,3.93s-3.3,3-5.89,3.11h-.22Z"/><path class="cls-1" d="M61.38,104.75c-1.15-.13-7.18-1.89-10.66-3C41.81,98.9,34.1,93.59,32.48,90.42a3.24,3.24,0,0,1-.27-2.56A3,3,0,0,1,34.05,86c3.28-1.3,13.05,1.15,20.1,5,8.05,4.42,9.76,5.71,10,5.92L62,99.68H62ZM40.86,91.38a44.73,44.73,0,0,0,11.42,5.5c1.42.46,2.88.9,4.22,1.3-1.25-.72-2.82-1.6-4.8-2.69A43.85,43.85,0,0,0,40.86,91.38Z"/><path class="cls-1" d="M60.85,104c-1.51-.34-6.09-1.65-9.94-2.88-7.76-2.48-13.71-6.47-16.44-9.13l-.1-.09-1-1.18,3.17-3.88c.15.08,14.46,7.75,20.82,9.33,3.89,1,6.55,2.08,6.87,4.44a3.13,3.13,0,0,1-1.58,3.12l-.86.48Z"/><path class="cls-1" d="M61.61,101.08c-1.19-.27-7.35-2.79-10.9-4.33-9.22-4-16.74-10.31-18-13.67a3.22,3.22,0,0,1,.06-2.57,3,3,0,0,1,2-1.59c3.45-.92,13.65,2.8,20.58,7.5,8,5.42,9.66,6.92,9.91,7.16l-2.53,2.61ZM41.14,85a49.65,49.65,0,0,0,11.6,7c1.62.7,3.27,1.39,4.75,2-1.26-.9-2.89-2-5-3.43A48,48,0,0,0,41.14,85Z"/><path class="cls-1" d="M61.18,100.22c-1.57-.53-6.26-2.41-10.19-4.12C43.08,92.66,37.27,88,34.7,85l-.09-.11-.9-1.29L37.17,80C41.82,82.88,55,90.82,59.82,92.31c2.89.88,5.58,2,5.62,4.58a3.58,3.58,0,0,1-2.62,3.33l-.82.28Z"/><path class="cls-1" d="M61.6,97.6c-1.2-.5-7.46-4.4-11.1-6.78-9.23-6-16.38-14.36-17-18.07A3.18,3.18,0,0,1,34,70.19,3.08,3.08,0,0,1,36.31,69c3.46-.29,13.6,5,20.95,12,7.73,7.37,9.25,9.28,9.48,9.59L63.6,92.92ZM41.11,75.82A54.87,54.87,0,0,0,53.29,86.55c2.24,1.47,4.67,3,6.62,4.19-1.35-1.36-3.32-3.31-6.17-6A55.44,55.44,0,0,0,41.11,75.82Z"/><path class="cls-1" d="M61.87,96.9l-.55-.29c-1.61-.88-6.39-3.81-10.39-6.42C42.94,85,37.5,78.81,35.26,75.13L35.19,75l-.73-1.55,4-3c.15.13,14.82,13.26,23.09,17.57,3.15,1.65,6.18,3.48,5.5,6.24-.24,1-1.14,2.63-4.47,2.63Z"/><path class="cls-1" d="M63.39,93.05c-1.11-.61-7.13-5-11.27-8.12-9.79-7.45-16.94-16.53-17.23-20a2.94,2.94,0,0,1,3-3.29h0c3.69,0,14.46,7.32,21.37,14.52,8,8.37,9.48,10.35,9.62,10.55L65.61,89ZM43.6,69.81A70.72,70.72,0,0,0,55.21,80.87c1.69,1.28,3.47,2.6,5.08,3.78-1.22-1.31-2.76-2.94-4.71-5A69.75,69.75,0,0,0,43.6,69.81Z"/><path class="cls-1" d="M63.17,92.09c-1.61-1.06-6.59-4.65-10.6-7.7C44.47,78.23,39,71.59,36.73,67.77l-.06-.1-.74-1.58,4-3L64.48,85.49l2.15,3Z"/><path class="cls-1" d="M63.84,89.27c-1.09-.78-6.8-6.16-10.72-10-9-8.84-15.51-19.56-15.37-23.24a3.07,3.07,0,0,1,1.06-2.28,3,3,0,0,1,2.33-.66c3.82.45,14.11,9.56,20.39,18.05,7.3,9.86,8.56,12.13,8.68,12.36l-3.54,1.86ZM45.45,61.56A74,74,0,0,0,56.7,75.62c2,2,4.14,4,5.94,5.7-1.22-1.72-2.9-4-5.21-7.17A73.58,73.58,0,0,0,45.45,61.56Z"/><path class="cls-1" d="M63.73,88.23c-1.54-1.32-6.27-5.76-10.06-9.49C46,71.2,41.14,63.49,39.29,59.18l0-.11-.56-1.76L43,54.87,69.91,85.82l-4.53,3.82Z"/><path class="cls-1" d="M63.82,82.66c-1-.87-6.2-6.69-9.75-10.86C45.93,62.25,40.27,51,40.65,47.3a3,3,0,0,1,1.15-2.17,3,3,0,0,1,2.39-.55c3.68.67,13.13,10.59,18.71,19.66,6.45,10.47,7.52,12.85,7.62,13.09l-3.39,1.44,0,0ZM48,53.6A75.21,75.21,0,0,0,58,68.49c1.7,2,3.51,4.06,5.07,5.82-1.06-1.81-2.5-4.21-4.46-7.4A74.43,74.43,0,0,0,48,53.6Z"/><path class="cls-1" d="M63.78,81.6c-1.41-1.45-5.72-6.25-9.15-10.28-6.94-8.14-11.18-16.26-12.7-20.75l0-.11-.43-1.81L46,46.56l24,33-4.66,3.62Z"/><path class="cls-1" d="M66.47,81.88c-1-1.2-5.91-9.25-9.15-14.76C49.54,53.92,45,39.89,46.1,36.17a3,3,0,0,1,1.55-1.88A2.93,2.93,0,0,1,50,34.22c3.7,1.39,12.77,15.19,17.65,26.84,5.63,13.46,6.47,16.37,6.55,16.66l-3.74,1Zm-14-37.73a100.3,100.3,0,0,0,9.26,20.39c1.89,3.2,4,6.66,5.67,9.36C66.44,71.48,65,68,63,63A104.22,104.22,0,0,0,52.46,44.15Z"/><path class="cls-1" d="M66.61,80.74c-1.35-2-5.41-8.55-8.61-14-6.45-10.95-10-21.1-11-26.47l0-.11L46.75,38l4.86-1.31c.13.28,12.23,27.42,16.85,34.85s4.6,7.43,3.85,8.79l-.72,1.31H70.07l-.35,0-1.87.91Z"/><path class="cls-1" d="M68.28,78.79c-.86-1.36-5.21-10.41-8-16.59-6.64-14.56-10-30.16-8.5-33.87a3.07,3.07,0,0,1,1.73-1.73,3,3,0,0,1,2.38.15C59.57,28.58,67.6,44.12,71.48,57,76,71.84,76.54,75,76.59,75.32l-4,.66a.41.41,0,0,1,0,.09ZM57.13,36.54A106.12,106.12,0,0,0,64.9,60.08C66.8,64.25,69,68.79,70.52,72c-.72-2.67-1.93-6.91-3.92-13.52A110.74,110.74,0,0,0,57.13,36.54Z"/><path class="cls-1" d="M68.55,77.61C67.36,75.35,63.8,68,61,61.86c-5.59-12.26-8.2-23.38-8.74-29.17V30.32l4.94-.92,18.12,48-5.69,2.15Z"/><path class="cls-1" d="M69.81,74c-.71-1.45-4-10.93-6.12-17.38-5-15.21-6.59-31.1-4.66-34.61a3.09,3.09,0,0,1,1.9-1.53,3,3,0,0,1,2.36.42C66.76,23.17,73,39.51,75.43,52.73c2.8,15.27,3,18.48,3,18.79l-4.1.2a1,1,0,0,0,0,.1ZM63.46,30.81a106.43,106.43,0,0,0,5.08,24.26c1.42,4.36,3.06,9.11,4.25,12.45-.41-2.73-1.13-7.07-2.38-13.87A110.63,110.63,0,0,0,63.46,30.81Z"/><path class="cls-1" d="M70.21,72.9c-.94-2.39-3.65-10.11-5.74-16.5-4.19-12.8-5.54-24.14-5.42-30v-.11l.24-2.25,5-.36L76.94,73.49,71,75Z"/><path class="cls-1" d="M73.44,72.93c-.63-1.63-3.36-12.19-5.08-19.37-4-16.89-4.38-34.18-2-37.78a3.09,3.09,0,0,1,2-1.39,3.06,3.06,0,0,1,2.34.62C74.29,17.72,79.56,35.92,81,50.42,82.68,67.21,82.62,70.7,82.61,71l-4.48-.15.07.2ZM70,24.34a114.15,114.15,0,0,0,3.32,28c1.41,5.91,3.1,12.45,4.09,16.05-.15-2.62-.53-7.78-1.49-17.5A119.65,119.65,0,0,0,70,24.34Z"/><path class="cls-1" d="M74,71.74c-.81-2.67-3.06-11.28-4.76-18.39C65.84,39.11,65.38,26.72,66,20.44v-.11l.46-2.41,5,.06,9.23,54.88-6.11,1Z"/><path class="cls-1" d="M77.1,69.82c-.48-1.6-2.4-12.12-3.72-20.48-2.83-17.81-1.84-35.72.9-39.25a3.15,3.15,0,0,1,2.17-1.24,3.1,3.1,0,0,1,2.3.81c3.12,2.78,7.41,21,7.78,37.45.4,17.54.07,21.15,0,21.5l-4.64-.51c0,.11,0,.19.07.25Zm.16-51.18a117.94,117.94,0,0,0,1.16,29.9c1.07,6.78,2.44,14.35,3.14,17.88.07-2.34.13-7.73-.13-19.19A123.18,123.18,0,0,0,77.26,18.64Z"/><path class="cls-1" d="M77.76,68.64c-.62-2.83-2.27-11.93-3.46-19.44-2.39-15-1.88-27.89-.71-34.35l0-.11.67-2.45,5,.44,5.2,57.54-6.23.56Z"/><path class="cls-1" d="M90.66,64.78l-5-1c0-.06,0-.14,0-.25l-4.57.93c-.07-.35-.73-3.91-1.91-21.42C78.11,26.57,80.74,8.06,83.6,5a3,3,0,0,1,2.22-1,3.12,3.12,0,0,1,2.27,1c3,3.26,5.65,21,4.43,39C92,51.71,91,63,90.66,64.78Zm-4.77-51a122.59,122.59,0,0,0-1.58,28.86c.77,11.37,1.31,16.76,1.6,19.12.38-3.59,1.06-11.25,1.52-18.08A117.59,117.59,0,0,0,85.89,13.81Z"/><path class="cls-1" d="M83.35,65.89V8.11l4.94-.89.89,2.39,0,.1C91,16,92.62,28.81,91.59,44c-.51,7.58-1.34,16.8-1.7,19.67l-.29,2.23Z"/><path class="cls-1" d="M66.67,171,55.84,120.87l3.65-32.78L74,71.27l3.86,3.32L75.8,77l1.53,2.67-1.27-2.21,1.33,2.18c-.07,0-7,4.69-10.66,26.16-1.47,8.56-1.13,17.38,4.84,41.85,2.51,10.25,4.93,15.17,5,15.22l1.09,2.2Zm2.15-14.23,1.4,6.49.75-.4C70.41,161.48,69.66,159.46,68.82,156.77ZM61,120.6l.44,2c-.13-1.09-.24-2.12-.32-3.11Zm3.38-30.37-.55,5a69.2,69.2,0,0,1,2.29-7Z"/><polygon class="cls-1" points="87.42 83.75 87.42 62.92 95.7 62.92 95.7 83.85 91.34 84.76 87.42 83.75"/><polygon class="cls-1" points="87.42 81.78 87.42 62.92 93.15 62.92 94.22 67.78 93.03 68.33 92.53 81.87 87.42 81.78"/><path class="cls-1" d="M63.34,169.31c-.36-1.21-8.8-29.67-10-43C52,109.58,52.65,97,60.48,78.38,66.56,63.93,74.9,60.9,80.82,60.9a21.7,21.7,0,0,1,4.65.54c3.08.65,5.17,1.34,6,2l1,.76V81.78l-4.89,1,0,.1s-1-1.83-5.22-3.53a5.78,5.78,0,0,0-2.19-.44,8.22,8.22,0,0,0-5,2c-4.54,4.22-8.08,12.37-10.26,23.6-1,5.35-1.19,15.69.82,26.72,2.41,13.19,8.57,32.92,8.63,33.11l.63,2-10.85,5.9Z"/><path class="cls-1" d="M89.42,68l-.51-.23a18.26,18.26,0,0,0-3.4-1.12c-1.93-.4-5.09-.67-5.12-.67l.22-5.1a74.48,74.48,0,0,1,8,.38,29.7,29.7,0,0,1,5.59,1.85l-1,4.89Z"/><path class="cls-1" d="M53.39,126.33C52,109.58,52.65,97,60.48,78.38,66.56,63.93,74.9,60.9,80.82,60.9a21.7,21.7,0,0,1,4.65.54c3.08.65,5.17,1.34,6,2l1,.76V81.78l-4.89,1,0,.1s-1-1.83-5.22-3.53a5.78,5.78,0,0,0-2.19-.44,8.22,8.22,0,0,0-5,2l-.21.21-.26.15s-3.28,2.06-7.67,8.3c-3.69,5.24-6.7,23-7.55,29.41l-1.12,7.43Z"/></g><g id="POLANDBALL"><ellipse class="cls-1" cx="110.98" cy="191.5" rx="69.58" ry="70.83"/><path class="cls-1" d="M111.06,255.4h-.16a62.81,62.81,0,0,1-62.57-62.74V189.2h5.1v3.46a57.55,57.55,0,1,0,115.1,0V189.2h5.11v3.46a62.82,62.82,0,0,1-62.58,62.74Z"/><path class="cls-1" d="M110.9,255.4a62.83,62.83,0,0,1-62.57-62.74l5-.74a78.42,78.42,0,0,0,12.54,22.93c11.83,15,27,22.54,45.1,22.54,43.38,0,57.54-45,57.68-45.47l5,.74a62.84,62.84,0,0,1-62.58,62.74h-.16Z"/><path class="cls-1" d="M108.28,213.64c-35.18,0-54.18-10.1-58.37-16.88a13.21,13.21,0,0,1-1.58-6.85,62.83,62.83,0,0,1,62.57-62.68h.16a62.84,62.84,0,0,1,62.58,62.68,13.36,13.36,0,0,1-1.59,6.85c-2.33,3.77-13.62,16.16-61,16.85l-2.72,0Z"/><path class="cls-1" d="M108.28,214.63c-33.33,0-54.06-9-59.22-17.35a14.11,14.11,0,0,1-1.73-7.37,63.83,63.83,0,0,1,63.56-63.68h.17a63.81,63.81,0,0,1,63.57,63.63,14.26,14.26,0,0,1-1.73,7.42c-6.4,10.38-29.53,16.86-61.88,17.33C110.1,214.63,109.19,214.63,108.28,214.63Zm2.7-82.29A57.71,57.71,0,0,0,53.43,190v.12a8.48,8.48,0,0,0,.83,4c2.91,4.71,20,14.45,54,14.45.88,0,1.76,0,2.66,0,46.94-.69,55.9-13,56.77-14.43a8.48,8.48,0,0,0,.83-4V190A57.71,57.71,0,0,0,111,132.34Z"/><path class="cls-1" d="M108.28,216.63c-19.64,0-33.15-3.14-41-5.78-9.9-3.31-17-7.76-19.9-12.52a16.18,16.18,0,0,1-2-8.52,65.83,65.83,0,0,1,65.56-65.58h.17a65.86,65.86,0,0,1,65.58,65.67,16.11,16.11,0,0,1-2,8.43c-3.25,5.26-15.94,17.58-63.55,18.28C110.12,216.63,109.2,216.63,108.28,216.63Zm2.7-84.29A57.71,57.71,0,0,0,53.43,190v.12a8.48,8.48,0,0,0,.83,4c2.91,4.71,20,14.45,54,14.45.88,0,1.76,0,2.66,0,46.94-.69,55.9-13,56.77-14.43a8.48,8.48,0,0,0,.83-4V190A57.71,57.71,0,0,0,111,132.34Z"/><path class="cls-1" d="M108.28,213.64c-35.18,0-54.18-10.1-58.37-16.88a13.18,13.18,0,0,1-1.58-6.84c0-4.06,0-14.64,7.92-14.64,4.42,0,10,3.75,17,8.5,10.5,7.11,23.56,15.95,37.76,16s27.25-8.87,37.74-16c7-4.75,12.56-8.5,17-8.5,7.89,0,7.92,10.58,7.93,14.63a13.35,13.35,0,0,1-1.59,6.85c-2.33,3.77-13.62,16.16-61,16.85Z"/><path class="cls-1" d="M108.28,214.63c-33.33,0-54.06-9-59.22-17.35a14.09,14.09,0,0,1-1.73-7.37c0-3.94,0-15.63,8.92-15.63,4.73,0,10.38,3.83,17.54,8.67,10.39,7,23.31,15.78,37.2,15.81S137.79,190,148.17,183c7.16-4.84,12.81-8.67,17.54-8.67,2.1,0,5.91.81,7.74,6.18a30.65,30.65,0,0,1,1.18,9.4,14.26,14.26,0,0,1-1.73,7.42c-6.4,10.38-29.53,16.86-61.88,17.33C110.1,214.63,109.19,214.63,108.28,214.63Zm-52-34.24c-2.33,0-2.82,5.21-2.82,9.58v.12a8.48,8.48,0,0,0,.83,4c2.91,4.71,20,14.45,54,14.45.88,0,1.76,0,2.66,0,46.94-.69,55.9-13,56.77-14.43a8.54,8.54,0,0,0,.83-4V190c0-4.37-.49-9.58-2.82-9.58-2.86,0-8.33,3.7-14.12,7.62-10.47,7.09-24.81,16.79-40.53,16.85h-.16C95.18,204.8,80.84,195.1,70.37,188,64.58,184.09,59.11,180.39,56.25,180.39Z"/><path class="cls-1" d="M90.8,203.68c-6,0-10.14-.81-12.94-2.55-6.94-4.29-7.07-10.73-7.12-13.48,0-.32,0-.57,0-.75l-1.36-6.28,5.31,3.7a9.83,9.83,0,0,1,1.22,1.07,42.58,42.58,0,0,0,9.54,6.91c4.3,2.35,9,4.43,13.52,6.35l-1.14,4.89h-.5c-.6,0-1.36,0-2.23.06C93.8,203.63,92.37,203.68,90.8,203.68Z"/><path class="cls-1" d="M91.22,208.2l-1,.2a36.77,36.77,0,0,1-6.13.49h-.53a19.12,19.12,0,0,1-8-1.93A18.25,18.25,0,0,1,69,201.62a21.66,21.66,0,0,1-3.5-7c-.27-.86-.48-1.73-.67-2.63l-1.28,0a34.33,34.33,0,0,1,.7-11,46.67,46.67,0,0,1,1.86-6.38l1.63-4.15L70.51,174a81.07,81.07,0,0,0,16.81,14.82C99.12,196.79,103,199,103,199l2.81,1.57L103.68,203a19.79,19.79,0,0,1-4.76,4,17.51,17.51,0,0,1-7.43,2.32ZM76.88,192.91a9.45,9.45,0,0,0,3.66,3.89,13.59,13.59,0,0,0,5.4,1.53c-1-.5-2-1-3-1.55A51.65,51.65,0,0,1,76.88,192.91Z"/><path class="cls-1" d="M131.16,203.68c-1.57,0-3-.05-4.27-.09-.87,0-1.63-.06-2.23-.06h-.5L123,198.65c4.48-1.92,9.21-4,13.51-6.35a42.58,42.58,0,0,0,9.54-6.91,9.83,9.83,0,0,1,1.22-1.07l5.3-3.64L151.24,187c0,.12,0,.37,0,.69-.05,2.75-.18,9.19-7.11,13.48C141.3,202.87,137.18,203.68,131.16,203.68Z"/><path class="cls-1" d="M130.47,209.24a17.51,17.51,0,0,1-7.43-2.32,20,20,0,0,1-4.76-4l-2.17-2.38,2.82-1.57s3.91-2.21,15.71-10.17A80.42,80.42,0,0,0,151.45,174l2.75-3.51,1.63,4.15a46.56,46.56,0,0,1,1.86,6.39,34.25,34.25,0,0,1,.7,11l-1.28,0c-.18.9-.41,1.78-.67,2.64a21.71,21.71,0,0,1-3.5,7,18.25,18.25,0,0,1-6.51,5.36,18.94,18.94,0,0,1-7.92,1.91h-.59a36.56,36.56,0,0,1-6.12-.49l-1.06-.2Zm14.61-16.33a51.65,51.65,0,0,1-6.09,3.87c-1,.53-2,1.05-3,1.55a13.59,13.59,0,0,0,5.4-1.53A9.45,9.45,0,0,0,145.08,192.91Z"/></g><g id="HELM"><path class="cls-1" d="M110.13,240.46a99.37,99.37,0,0,1-17.22-8.39L90,230.26l3.36-3c-1.15-.45-2.45-1-3.81-1.65-3.1-1.49-7.09-5-8.19-9.86-1-4.34-1.1-10,1.43-13a6,6,0,0,1,4.33-2.16h.18c2.79,0,4.42,2,5.3,3,.18.22.43.52.56.65,1.54,1.46,3,2.23,4.1,2.23h.47c.51,0,2,0,4.41-2.49l-8.87-14.61c-1.64-.16-3.24-.27-4.62-.32l-.17-5.09,23.56-2.42-2,7.84v15.34h-3.1L114.37,242Zm-7.59-48.65-.05-.55a17.58,17.58,0,0,0-3.14-.9Z"/><path class="cls-1" d="M115.05,204.82H112V189.48l-2-7.84,23.56,2.42-.17,5.09c-1.37,0-3,.16-4.62.32l-8.87,14.61c2.39,2.48,3.89,2.49,4.41,2.49h.47c1.14,0,2.56-.77,4.11-2.23.13-.13.36-.41.55-.64.88-1.07,2.51-3.05,5.26-3.05h.12a6.06,6.06,0,0,1,4.43,2.17c2.54,3,2.4,8.64,1.43,13-1.1,4.9-5.09,8.37-8.18,9.86-1.37.65-2.67,1.2-3.82,1.65l3.36,3-2.9,1.81a99.37,99.37,0,0,1-17.22,8.39L107.6,242Zm4.38-13,3.18-1.45a17.58,17.58,0,0,0-3.14.9Z"/><path class="cls-1" d="M51.9,259.22c-.28-.39-7-9.57-10.28-19.5-3.46-10.41-3.48-16.76-3.19-31.38.27-14.13,0-32.27,0-32.45l0-3.34,4.28,1.09-.1-.1.26-1.34A71,71,0,0,1,52.55,148a68.51,68.51,0,0,1,40.09-29.92,4.39,4.39,0,0,1,1-2,5,5,0,0,1,2.46-1.32,25.55,25.55,0,0,0,2.78-1,4,4,0,0,0,1.6-1.09,164.44,164.44,0,0,1,2.79-23.36c.91-4.47,5.2-10,5.68-10.58l2-2.51,2,2.51c.48.62,4.77,6.11,5.68,10.58a164.44,164.44,0,0,1,2.79,23.36,4,4,0,0,0,1.6,1.09,25.55,25.55,0,0,0,2.78,1,4.93,4.93,0,0,1,2.46,1.32,4.29,4.29,0,0,1,1,2A68.5,68.5,0,0,1,169.43,148a70.88,70.88,0,0,1,9.73,24.21l.27,1.34-.11.1,4.28-1.09,0,3.34c0,.18-.29,18.33,0,32.45.28,14.62.26,21-3.2,31.38-3.3,9.93-10,19.11-10.28,19.5l-4.44,6-1.33-60.4,1.69-.64c.19-.08,5.06-2.06,5.06-6.82a5.71,5.71,0,0,0-4.45-5.17c-2.82-.33-5.26-.66-7.59-1a223.54,223.54,0,0,0-28.2-2.19h-1a98.63,98.63,0,0,0-18.23,2l-.64.17-.64-.17a98.42,98.42,0,0,0-18.23-2h-1A223.17,223.17,0,0,0,63,191.27c-2.34.31-4.78.64-7.6,1a5.71,5.71,0,0,0-4.45,5.17c0,4.76,4.87,6.74,5.08,6.82l1.65.66,0,1.78-1.29,58.6Z"/><path class="cls-1" d="M52.14,221l.28-12.8c-2.44-1.41-6.68-4.72-6.68-10.76a10.68,10.68,0,0,1,8.85-10.22l.14,0c1.31-.14,4.52-.55,4.52-.55l1,5c-.06,0-6.67,1.94-6.4,5.61.17,2.29,4.42,5.49,6.27,6.52L63.34,205,61,207.74s-2.71,3.46-3.72,13.54Z"/><path class="cls-1" d="M111,240.61c-2.08,0-16.71-8.5-16.85-8.59l-2.6-1.52,2.71-3.25L91.45,226l-.38-.19c-1.9-1-7.71-4-8.52-11.22-.2-1.75-.65-7.66,1.77-10.49a4,4,0,0,1,2.89-1.47h.14c1.81,0,2.91,1.34,3.71,2.32a10.7,10.7,0,0,0,.73.82c1.95,1.84,3.79,2.78,5.48,2.78a4.8,4.8,0,0,0,2.33-.63,3.89,3.89,0,0,0,2.29-4.13l-4.64-12.08,6.53,2.27v-9.78h14.41V194l6.53-2.27-4.65,12.08a3.89,3.89,0,0,0,2.29,4.13,4.8,4.8,0,0,0,2.33.63c1.69,0,3.53-.94,5.48-2.78a10.7,10.7,0,0,0,.73-.82c.8-1,1.91-2.32,3.71-2.32h.14a4,4,0,0,1,2.89,1.47c2.43,2.83,2,8.74,1.77,10.49-.81,7.24-6.62,10.23-8.52,11.22l-.38.19-2.79,1.24,2.71,3.25-2.6,1.52c-.14.09-14.77,8.59-16.85,8.59Z"/><path class="cls-1" d="M164.74,221.28c-1-10.09-3.73-13.54-3.76-13.58L158.6,205l3.27-1.26c1.85-1,6.08-4.22,6.25-6.51.28-3.67-6.33-5.59-6.4-5.61l1-5s3.21.41,4.52.55l.15,0a10.68,10.68,0,0,1,8.84,10.22c0,6-4.23,9.35-6.68,10.76l.28,12.8Z"/><path class="cls-1" d="M103.54,191.94v-7.16l2.94.44a44.87,44.87,0,0,1,4.5,1,44.87,44.87,0,0,1,4.5-1l2.94-.44v7.16L111,196Z"/><path class="cls-1" d="M103.3,89.28c.91-4.47,5.2-10,5.68-10.58l2-2.51,2,2.51c.48.61,4.77,6.11,5.68,10.58L113.9,91c-.93-1.77-2-3.76-2.92-5.26-.89,1.5-2,3.49-2.91,5.26Z"/><polygon class="cls-1" points="108.06 81.01 110.98 76.18 113.9 81.01 113.53 149.36 108.43 149.36 108.06 81.01"/><path class="cls-1" d="M172.2,175.11a65.5,65.5,0,0,0-10-23.57c-16.35-23-36.18-29.06-36.38-29.12l1.32-4.93A68.53,68.53,0,0,1,169.45,148a70.88,70.88,0,0,1,9.73,24.21l.27,1.34L173,180Z"/><polygon class="cls-1" points="107.89 174.88 114.07 174.88 113.53 189.01 108.43 189.01 107.89 174.88"/><path class="cls-1" d="M108.5,179.52a12.28,12.28,0,0,0-1.9-4.36c-6.23.44-14.7,1.3-22.9,2.13-5.32.54-10.35,1.05-14.37,1.4l-.61-5.06L111,167.15l42.27,6.48-.61,5.06c-4-.35-9-.86-14.37-1.4-8.18-.83-16.62-1.68-22.91-2.13a12.28,12.28,0,0,0-1.9,4.35Z"/><polygon class="cls-1" points="170.75 180.93 170.37 175.92 183.59 172.55 183.46 182.16 170.75 180.93"/><polygon class="cls-1" points="38.27 172.55 51.49 175.92 51.11 180.93 38.39 182.16 38.27 172.55"/><path class="cls-1" d="M51.9,259.22c-.28-.39-7-9.57-10.28-19.5-3.46-10.41-3.48-16.76-3.19-31.38l5.1,0c0,.16.26,16.17,4.75,29.47s7.78,18.43,7.81,18.48Z"/><path class="cls-1" d="M166.11,256.46l-.22-.14c0-.05,3.34-5.23,7.81-18.49s4.75-29.31,4.76-29.47l5.1,0c.28,14.62.26,21-3.2,31.38-3.3,9.93-10,19.11-10.27,19.5Z"/><polygon class="cls-1" points="173.9 207.94 175.86 203.35 188.31 205.82 187.83 217.74 173.9 207.94"/><path class="cls-1" d="M91.07,225.82c-1.9-1-7.71-4-8.52-11.22-.2-1.75-.65-7.66,1.77-10.49a4,4,0,0,1,2.89-1.47l9.74-.4-7.88,4.83c-.24.4-1.12,2.19-.36,6.62a11,11,0,0,0,5.05,7.77l-.62,1.15L91.4,226Z"/><path class="cls-1" d="M130,224.79l-.59-1.07-1.2-2.25h0a11.09,11.09,0,0,0,5-7.77c.81-4.76-.27-6.55-.28-6.56l-5.55-4.79,7.32.3a4.05,4.05,0,0,1,2.9,1.47c2.42,2.83,2,8.74,1.77,10.49-.82,7.24-6.62,10.23-8.53,11.22l-.27.14Z"/><polygon class="cls-1" points="173.54 207.64 176.83 203.77 183.53 208.48 183.74 218.08 173.54 207.64"/><polygon class="cls-1" points="60.58 141.01 66.08 135.86 70.78 143.9 66.81 147.02 60.58 141.01"/><path class="cls-1" d="M111,240.61c-2.08,0-16.71-8.5-16.85-8.59l-3.34-2,3.11-2.3a31.51,31.51,0,0,1,34.16,0l3.12,2.29-3.35,2c-.14.09-14.77,8.59-16.85,8.59Z"/><path class="cls-1" d="M108.43,238.22c0-.09-.57-9.11-.57-16.93s.56-28,.57-28.25h5.1c0,.2.54,20.42.54,28.24s-.54,16.83-.54,16.92Z"/><path class="cls-1" d="M110.2,191.34a46.22,46.22,0,0,0-9.34-1.72c-2.46-.2-4.26-.33-5.5-.41l-2.26-.13.25-5.09s.72,0,2.24.12c6.86.37,13.86.66,14.93.53a1.49,1.49,0,0,0-.22.05l.41,1.48,1.06.31-.53,1.62.42,1.51a4.13,4.13,0,0,1-.94.12Z"/><path class="cls-1" d="M111.77,191.34l-.52-1.61a4.16,4.16,0,0,1-1-.12l.42-1.51-.53-1.62,1.06-.31.41-1.48a1.65,1.65,0,0,0-.21-.05c1.07.13,8.07-.16,14.92-.53,1.52-.1,2.2-.12,2.25-.12l.24,5.09-2.26.13c-1.24.08-3,.21-5.5.41A46,46,0,0,0,111.77,191.34Z"/><path class="cls-1" d="M169.42,209.68l-.7-1.09a7.36,7.36,0,0,1-.84.4L166,204.24h0a21.92,21.92,0,0,0,1.95-1.12A8.54,8.54,0,0,0,170,201l4.62,1.94C173.87,206.69,169.87,209.38,169.42,209.68Z"/><polygon class="cls-1" points="164.67 221.88 164.49 210.45 164.28 200.94 170.59 206.37 170.31 246.42 165.21 246.46 164.67 221.88"/><path class="cls-1" d="M52.54,209.68c-.45-.3-4.45-3-5.23-6.73L51.93,201a8.6,8.6,0,0,0,2.06,2.1,17.27,17.27,0,0,0,2,1.13L54.08,209a6.78,6.78,0,0,1-.83-.4Z"/><polygon class="cls-1" points="51.65 246.42 51.37 206.37 57.68 200.94 57.47 210.47 57.29 221.86 56.75 246.46 51.65 246.42"/><path class="cls-1" d="M109.34,160.48c-.52-.44-12.81-10.83-17-20a47.18,47.18,0,0,1-3.84-18.91l.06-1.61,1.48-.64,2.07-.88c.92-.37,2.38-.85,2.44-.87l3.79-1.25-.45,4A40.55,40.55,0,0,0,101,138.87c4.22,9.49,11.76,17.86,11.84,17.94Z"/><path class="cls-1" d="M109.09,156.81c.08-.08,7.64-8.48,11.84-17.94A40.57,40.57,0,0,0,124,120.25l-.43-4,3.78,1.26s1.34.45,2.2.78,2.28,1,2.34,1l1.45.65,0,1.58a47,47,0,0,1-3.84,18.91c-4.14,9.19-16.43,19.58-16.95,20Z"/><path class="cls-1" d="M42.54,173.54l.26-1.34A71,71,0,0,1,52.55,148a68.47,68.47,0,0,1,42.26-30.48l1.31,4.93c-.2.06-20,6.13-36.38,29.12a65.47,65.47,0,0,0-10,23.57L48.94,180Z"/><polygon class="cls-1" points="60.87 137.05 70.19 128.44 71.13 145.04 66.38 146.47 60.87 137.05"/><path class="cls-1" d="M57,188.82a23.51,23.51,0,0,0,.11-6.22,31.61,31.61,0,0,0-6.69-1.69l.59-5.06,13.49,1-2.46,12.79Z"/><path class="cls-1" d="M157.39,176.84l13.49-1,.59,5.06a31.61,31.61,0,0,0-6.69,1.69,23.09,23.09,0,0,0,.11,6.22l-5,.81Z"/></g><g id="SHIELD-2" data-name="SHIELD"><path class="cls-2" d="M212.71,125.19c-2.87-1.94-11.26-4.39-22.05-6.94A4.61,4.61,0,0,0,191,117a4.37,4.37,0,0,0-.73-2.91,4.63,4.63,0,0,0,1.11-2.82,4.36,4.36,0,0,0-.86-2.83,4.7,4.7,0,0,0,1.28-3.29,4.54,4.54,0,0,0-2.06-3.71c1.47-1.42,2.37-3.07,2-4.92a4.38,4.38,0,0,0-2-3c1.43-1.45,2.95-3.58,2.14-6a4.17,4.17,0,0,0-1.47-2.09,5.31,5.31,0,0,0,.81-5.44,4.4,4.4,0,0,0-2.73-2.3c1.89-2.72,3.27-5.73,1.36-8.26A4.38,4.38,0,0,0,188.27,68c1-1.92,1.7-4.47-.2-6.49a4.34,4.34,0,0,0-2.71-1.34c1-2.38,1.85-5.56-.55-7.59a4.28,4.28,0,0,0-2.12-1c.9-2.51,1.55-5.76-.92-7.68a4.32,4.32,0,0,0-2.67-.9h0a5.17,5.17,0,0,0-1.85.35c1.2-4.44,1.88-8.75-1.58-10.44a4.35,4.35,0,0,0-1.88-.43h0a4.59,4.59,0,0,0-1.05.09c.25-2.84.06-6.25-3-7.4a4.09,4.09,0,0,0-1.51-.28h0a3.83,3.83,0,0,0-2.28.62c-.14-2.73-.84-5.72-3.79-6.47a4.19,4.19,0,0,0-1.05-.13h0a4.29,4.29,0,0,0-2.12.55c-.35-2.84-1.26-6-4.42-6.58l-.33-.05h-.38a4.38,4.38,0,0,0-2.49.77c-.57-2.79-1.72-6-4.95-6.27H146a4.51,4.51,0,0,0-3.55,1.76c-1-3.58-2.42-6.6-5.72-6.6A4.43,4.43,0,0,0,133.43,4c-3.72,4-5.73,24.82-4.77,39.09.63,9.35,1.12,14.76,1.44,17.83-1.12.41-2,.79-2.17.86l-2.4,1.05v21.4l2.21,1.11,1.76.87,1.82.54,2.06-.71,1.42-.88,1.54-1.66a11.06,11.06,0,0,1,4.42-2.8,4.33,4.33,0,0,1,1.64-.33,5.46,5.46,0,0,1,2.24.53c.77.62,6.29,5.58,9.64,23.22.07.43.2,1.09.35,1.88l.72,7.7c-7.94-.8-16.62-1.53-25.41-2a11.41,11.41,0,0,0-2.76-1.2c-.41-.13-.86-.27-1.42-.49h0A165.9,165.9,0,0,0,123,88.4a26.21,26.21,0,0,0-3.85-8.62C116.77,76,115,73.29,111,73.29s-5.79,2.72-8.19,6.49a26.42,26.42,0,0,0-3.85,8.62A165.9,165.9,0,0,0,96.2,110c-.56.22-1,.36-1.41.49a11,11,0,0,0-2.74,1.18c-8.81.46-17.49,1.17-25.38,2L68.05,106c.15-.78.18-.91.35-1.88,3.34-17.54,8.81-22.54,9.65-23.22a5.41,5.41,0,0,1,2.23-.53,4.29,4.29,0,0,1,1.64.33,10.89,10.89,0,0,1,4.43,2.81l1.53,1.65,1.42.88,1.9.66,2-.49,1.75-.87,2.21-1.11V62.85l-2.4-1.05c-.17-.07-1-.45-2.17-.86.33-3.07.81-8.48,1.44-17.83C95,28.84,93,8,89.26,4A4.47,4.47,0,0,0,86,2.55c-3.29,0-4.74,3-5.71,6.6a4.53,4.53,0,0,0-3.56-1.76h-.19l-.2,0c-3.23.29-4.38,3.48-4.94,6.27a4.36,4.36,0,0,0-2.5-.77h-.33l-.38.05c-3.16.54-4.07,3.75-4.42,6.58A4.29,4.29,0,0,0,61.63,19a4.08,4.08,0,0,0-1.05.13c-3,.75-3.66,3.74-3.79,6.47A3.87,3.87,0,0,0,54.48,25a4.29,4.29,0,0,0-1.51.27c-3.07,1.16-3.26,4.57-3,7.41a4.76,4.76,0,0,0-1.07-.09h0A4.35,4.35,0,0,0,47,33c-3.45,1.69-2.78,6-1.58,10.44a5.08,5.08,0,0,0-1.84-.35,4.33,4.33,0,0,0-2.68.9c-2.47,1.92-1.82,5.17-.92,7.68a4.21,4.21,0,0,0-2.11,1c-2.41,2-1.58,5.21-.55,7.59a4.29,4.29,0,0,0-2.71,1.34c-1.91,2-1.18,4.57-.21,6.49a4.33,4.33,0,0,0-1.54,1.28c-1.92,2.53-.53,5.54,1.36,8.26a4.42,4.42,0,0,0-2.74,2.3c-1,2-.17,4,.81,5.44a4.23,4.23,0,0,0-1.47,2.09c-.81,2.45.71,4.58,2.15,6a4.37,4.37,0,0,0-2.06,3c-.32,1.85.58,3.5,2,4.92a4.56,4.56,0,0,0-2.06,3.71,4.7,4.7,0,0,0,1.28,3.29,4.36,4.36,0,0,0-.86,2.83,4.63,4.63,0,0,0,1.11,2.82,4.37,4.37,0,0,0-.72,2.91,4.07,4.07,0,0,0,.24,1.11c-11.11,2.62-19.79,5.13-22.71,7.11C2.44,129.81-2,229.64,10.31,254.51c41.57,83.86,99.36,95.11,100.67,95.7,1.31-.59,59.1-11.84,100.68-95.7C224,229.64,219.52,129.81,212.71,125.19Z"/><path class="cls-3" d="M147,311.73c-22.26,16-36,18.62-36,18.62s-13.79-2.65-36-18.62C53.52,296.35,27,264.51,27,264.51c31.83,55.08,69.91,71.1,84,75.31,14.07-4.21,52.16-20.23,84-75.31C195,264.51,168.44,296.35,147,311.73Z"/><path class="cls-4" d="M147,311.73c-22.26,16-36,18.62-36,18.62s-13.79-2.65-36-18.62C53.52,296.35,27,264.51,27,264.51c32.57,48.13,69.91,64.19,84,68.4,14.07-4.21,51.41-20.27,84-68.4C195,264.51,168.44,296.35,147,311.73Z"/><path class="cls-3" d="M111,119.79h0a405.87,405.87,0,0,0-73.86,7.38c-12.09,2.76-17.78,4.57-20.35,5.53-1.78,6.93-4,27.66-4.14,54.33-.14,25.19,1.63,36.17,4.72,47.48-1.25-10.93-.19-71.34,5.47-96.45C40,132,80.27,121.14,111,119.79Z"/><path class="cls-4" d="M111,119.79h0a405.87,405.87,0,0,0-73.86,7.38c-12.09,2.76-17.78,4.57-20.35,5.53-1.78,6.93-4,27.66-4.14,54.33,1.82-15.53,2.29-33.62,6.19-53C36,128,80.27,121.14,111,119.79Z"/><path class="cls-3" d="M199.14,138.06c5.66,25.11,6.72,85.52,5.47,96.45,3.09-11.31,4.86-22.29,4.72-47.48-.15-26.67-2.36-47.4-4.14-54.33-2.57-1-8.26-2.77-20.35-5.53A405.74,405.74,0,0,0,111,119.79h0C141.71,121.14,182,132,199.14,138.06Z"/><path class="cls-4" d="M203.14,134.06c3.9,19.35,4.37,37.44,6.19,53-.15-26.67-2.36-47.4-4.14-54.33-2.57-1-8.26-2.77-20.35-5.53A405.74,405.74,0,0,0,111,119.79h0C141.71,121.14,186,128,203.14,134.06Z"/></g><g id="NAPIS-2" data-name="NAPIS"><path class="cls-4" d="M44,279.65l25.25.11c-.45,2.35-.67,3.52-1.11,5.86,6.67-2,9.93-2.95,16.32-4.92.27-2.26.4-3.39.67-5.65H44.65L53,247.92h56.85q-.08,26.5-.16,53c-15.61,4.58-31.29,8.88-47,13L60.79,324q-16.5,4.62-33.06,9Z"/><path class="cls-2" d="M107.44,250.92l-.75,47.76c-15.52,4.58-31.13,8.88-46.77,13l-2,10.12c-9.93,2.82-15,4.23-25.46,7Q37.22,312.43,42,296c1.56-5.32,2.34-8,3.89-13.31l20,.09-1.39,6.89c9.28-2.68,13.79-4,22.55-6.7l1.15-10.89H48.26l6.25-21.13h52.93m4.78-6H51.61l-1.93,6c-2.72,8.45-4.07,12.68-6.79,21.13l-1.93,6h.79l-1.47,4.61c-1.69,5.33-2.54,8-4.23,13.31q-5.23,16.45-10.46,32.91l-2.65,8.33c4-1.06,6-1.58,10-2.64,10.62-2.81,15.8-4.22,25.91-7l4.89-1.36.76-4.33,1-5.65q21.48-5.7,42.85-11.76l4.42-1.27c0-1.79,0-2.69,0-4.48q-.24-23.88-.47-47.76c0-2.4,0-3.6-.06-6ZM72.35,278.05H82l-.06.41c-4,1.26-6.09,1.88-10.24,3.14.25-1.42.37-2.13.62-3.55Z"/><path class="cls-4" d="M163.1,324l-2-10.05q-23.69-6.19-47.17-13-.39-26.37-.77-52.73h21.53l4.23,32.51c6.46,2,9.75,3,16.49,4.95l-7.53-37.46h21.53q13.44,42.44,26.87,84.85Q179.66,328.61,163.1,324Z"/><path class="cls-2" d="M167.92,251.19q6.81,22.4,13.61,44.78c.95,3.15,1.43,4.73,2.39,7.87,3,10,4.56,15,7.61,25-10.47-2.81-15.58-4.22-25.55-7-.86-4-1.29-6.07-2.16-10.12q-23.55-6.2-46.92-13l-1.3-47.49h17q1.86,15.87,3.73,31.75c8.83,2.69,13.38,4,22.74,6.74q-4.12-19.24-8.23-38.49h17m2.86-6H144.91c.45,2.4.68,3.6,1.13,6l5.73,30.44c-4.21-1.27-6.29-1.9-10.39-3.17l-3.9-27.27c-.34-2.4-.51-3.6-.86-6H110.75c0,2.4,0,3.6,0,6l.09,47.49v4.48l4.44,1.27q21.44,6.07,43,11.76c.43,2.26.64,3.39,1.07,5.65l.81,4.33,4.9,1.36c10.15,2.82,15.35,4.23,26,7,4,1.06,6,1.58,10,2.64l-2.75-8.33-8.25-25c-1-3.14-1.55-4.72-2.59-7.87q-7.38-22.38-14.75-44.78l-2-6Z"/><path class="cls-3" d="M55.73,320.22l1.8-8.5.35-1.68,1.8-.48q22.46-6.07,44.78-12.55.26-9.69.49-19.36H89.67c-.15,1.58-.31,3.18-.51,5.29L89,284.61l-1.58.48c-10.06,3.06-15.26,4.58-26,7.64l1.7-8H47.58c-1.51,5.17-2.26,7.76-3.78,12.93q-4,14.06-7.94,28.11C44,323.54,47.94,322.44,55.73,320.22Z"/><path class="cls-5" d="M159.11,289.68l-2.57-12h0l2.57,12Z"/><path class="cls-3" d="M119.11,297q22.41,6.5,44.93,12.55l1.8.48.38,1.68c.76,3.4,1.13,5.1,1.89,8.5,7.82,2.22,11.81,3.32,19.94,5.54l-6.45-21.92c-.93-3.14-1.39-4.72-2.32-7.87q-2.7-9.15-5.39-18.32H158.61q1.33,6,2.68,12l.68,3-3-.86c-9.43-2.69-14-4-22.93-6.74l-1.58-.48c-.07-.67-.11-1-.18-1.67l-.57-5.29H118.39Z"/><path class="cls-6" d="M158.18,310.22l5.64,1.5c.87,4,1.3,6.07,2.16,10.12h0c-.86-4-1.29-6.07-2.16-10.12Z"/><path class="cls-7" d="M57,314.37q-9.63,2.5-19.28,4.93l-1.83,6.46c8.1-2.22,12.08-3.32,19.87-5.54C56.23,317.82,56.57,316.26,57,314.37Z"/><path class="cls-7" d="M168.11,320.22c7.82,2.22,11.81,3.32,19.94,5.54-.63-2.12-1.17-4-1.68-5.71Q176.65,317.56,167,315C167.31,316.62,167.64,318.09,168.11,320.22Z"/><path class="cls-8" d="M166,321.84l-1.61-7.53h0l1.61,7.53Z"/></g><g id="WINGS-2" data-name="WINGS"><path class="cls-2" d="M155.94,165.2a61.34,61.34,0,0,0,5.26,3.62c5.43,3.4,10.85,3.3,11.26,2.2s-4-5.41-9.19-6.93-6.25-1.53-6.25-1.53"/><path class="cls-9" d="M171.19,171.09a16.63,16.63,0,0,1-9.77-2.81c-2-1.25-4.34-2.87-5-3.44l.32-.86a64.84,64.84,0,0,0,7.5,3.91,61.47,61.47,0,0,0,7.82,3Z"/><path class="cls-2" d="M157.23,161.2a62.2,62.2,0,0,0,5.48,3.29c5.63,3.06,11,2.62,11.37,1.5s-4.3-5.15-9.6-6.34-6.33-1.15-6.33-1.15"/><path class="cls-9" d="M172.82,166.14a16.6,16.6,0,0,1-9.93-2.21c-2.06-1.12-4.51-2.59-5.25-3.12l.27-.87a65.59,65.59,0,0,0,7.72,3.44,62.52,62.52,0,0,0,8,2.49Z"/><path class="cls-2" d="M158.88,157.07a62.2,62.2,0,0,0,5.48,3.29c5.63,3.06,11,2.62,11.37,1.5s-4.3-5.15-9.6-6.34-6.33-1.15-6.33-1.15"/><path class="cls-4" d="M174.47,162a16.65,16.65,0,0,1-9.93-2.2c-2.06-1.13-4.51-2.6-5.25-3.12l.27-.88a65.59,65.59,0,0,0,7.72,3.44,62.52,62.52,0,0,0,8,2.49Z"/><path class="cls-2" d="M160.35,153.23a62.38,62.38,0,0,0,5.54,3.17c5.7,2.94,11.09,2.38,11.41,1.25s-4.42-5.06-9.74-6.13-6.36-1-6.36-1"/><path class="cls-4" d="M176,157.83a16.63,16.63,0,0,1-10-2c-2.09-1.08-4.57-2.5-5.32-3L161,152a66.37,66.37,0,0,0,7.8,3.28,64.76,64.76,0,0,0,8,2.32Z"/><path class="cls-2" d="M161,149.2a63.87,63.87,0,0,0,5.71,3.17c5.86,2.94,11.41,2.39,11.73,1.26s-4.54-5.06-10-6.14-6.54-1-6.54-1"/><path class="cls-4" d="M177.17,153.8a17.46,17.46,0,0,1-10.26-2c-2.15-1.07-4.7-2.49-5.47-3l.25-.89s5.49,2.58,8.73,3.69a61.88,61.88,0,0,0,7.57,1.91Z"/><path class="cls-2" d="M161.53,144.18a66.73,66.73,0,0,0,6.27,3.35c6.45,3.11,12.56,2.52,12.91,1.33s-5-5.34-11-6.48-7.19-1.06-7.19-1.06"/><path class="cls-4" d="M179.29,149a19.85,19.85,0,0,1-11.29-2.1c-2.36-1.14-5.17-2.64-6-3.17l.28-.93a71.2,71.2,0,0,0,8.82,3.64c4.33,1.29,9.11,2.26,9.11,2.26Z"/><path class="cls-2" d="M161.76,139.65a72.08,72.08,0,0,0,7,3.31c7.14,3,13.7,2,14,.69s-5.71-5.57-12.28-6.46-7.83-.74-7.83-.74"/><path class="cls-4" d="M181.23,143.94c-2.23.55-7,.62-12.31-1.64-2.62-1.11-5.74-2.59-6.69-3.13,0,0-4.11-2.72,2,0s17.92,4.37,17.92,4.37Z"/><path class="cls-2" d="M163,136.08c.47.32,4.11,1.88,7.11,3,7.27,2.72,13.78,1.44,14,.09s-5.94-5.32-12.54-5.94-7.86-.4-7.86-.4"/><path class="cls-4" d="M182.59,139.54c-2.2.64-7,.91-12.37-1.12-2.66-1-5.84-2.35-6.81-2.84,0,0-4.16-2.6,1.53-.49s18.59,4,18.59,4Z"/><path class="cls-10" d="M164.23,132.47c.51.25,4.33,1.29,7.46,2,7.57,1.69,13.84-.48,13.91-1.84s-6.63-4.46-13.25-4.15-7.83.68-7.83.68"/><path class="cls-4" d="M184.15,133.19a21.35,21.35,0,0,1-12.41.6c-2.77-.62-6.11-1.52-7.14-1.88,0,0-4.35-3.53,1.11-1.5A40.29,40.29,0,0,0,185,132.64Z"/><path class="cls-10" d="M164.26,127.82a75.67,75.67,0,0,0,7.52,1.75c7.63,1.43,13.82-.95,13.84-2.32s-6.77-4.22-13.38-3.69-7.81.94-7.81.94"/><path class="cls-4" d="M184.19,127.86a21.21,21.21,0,0,1-12.37,1c-2.8-.53-6.16-1.31-7.21-1.63,0,0-8.88-2.66,3.45-.36,11.77,2.19,17,.38,17,.38Z"/><path class="cls-2" d="M162.68,122.67c.56.23,4.85,1.07,8.37,1.61,8.51,1.3,15.77-1.26,15.93-2.65s-7.27-4.16-14.82-3.48-9,1.13-9,1.13"/><path class="cls-4" d="M185.3,122.28a27.57,27.57,0,0,1-14.15,1.31c-3.12-.48-6.86-1.2-8-1.51,0,0-1.24-2.44,3.23-.74,5.63,2.15,19.95.33,19.95.33Z"/><path class="cls-2" d="M162.72,118.13a84.7,84.7,0,0,0,8.39,1.44c8.54,1.14,15.75-1.57,15.87-3s-7.35-4-14.88-3.19-8.93,1.31-8.93,1.31"/><path class="cls-4" d="M185.32,117.29a27.59,27.59,0,0,1-14.12,1.59c-3.13-.42-6.88-1.07-8-1.35,0,0-4.7-2.6,2.77-.87,8.16,1.9,20.4,0,20.4,0Z"/><path class="cls-2" d="M163.2,113.86c.57.19,4.91.73,8.46,1,8.58.69,15.64-2.38,15.7-3.78s-7.55-3.63-15-2.41-8.86,1.77-8.86,1.77"/><path class="cls-4" d="M185.73,111.86a27.55,27.55,0,0,1-14,2.31c-3.15-.25-6.93-.7-8.1-.93,0,0-6.92-1,2.37-.51s20.72-1.55,20.72-1.55Z"/><path class="cls-2" d="M161.93,109.62c.63.16,5.33.44,9.17.51,9.3.17,16.71-3.47,16.67-4.92s-8.36-3.28-16.34-1.54-9.43,2.4-9.43,2.4"/><path class="cls-4" d="M186.07,106.11a30.87,30.87,0,0,1-14.95,3.29c-3.41-.06-7.51-.29-8.79-.44,0,0-4.71-1.45,3.68-1s21.07-2.63,21.07-2.63Z"/><path class="cls-2" d="M161.42,105.64c.69.06,5.65-.42,9.68-1,9.75-1.31,17-6.08,16.72-7.51s-9.24-1.92-17.33,1.07-9.51,3.87-9.51,3.87"/><path class="cls-4" d="M186.17,98.33A34.08,34.08,0,0,1,171,104c-3.58.48-7.9.91-9.26,1,0,0-9.72-.52,3.36-2,13.62-1.5,22-5.55,22-5.55Z"/><path class="cls-2" d="M161,102.22c.74-.08,6-1.56,10.17-2.91,10.21-3.26,17.31-9.32,16.87-10.65s-10.05.06-18.29,4.59-9.64,5.67-9.64,5.67"/><path class="cls-4" d="M186.43,90.11c-2.28,2.23-7.83,6.1-15.43,8.53-3.74,1.2-8.29,2.49-9.73,2.82,0,0-2.12-1.19,4.64-2.86S187.33,89,187.33,89Z"/><path class="cls-2" d="M160.5,98.6c.77-.18,6.14-2.31,10.46-4.19,10.44-4.55,17.26-11.51,16.64-12.78s-10.66,1.33-18.88,6.9-9.56,6.88-9.56,6.88"/><path class="cls-4" d="M186.05,83.29c-2.16,2.51-7.59,7.08-15.37,10.47-3.83,1.67-8.51,3.54-10,4,0,0-3.34-1.14,2.92-3s23.26-12.64,23.26-12.64Z"/><path class="cls-2" d="M160.09,95.25c.82-.34,6.31-3.69,10.7-6.56,10.61-6.94,16.76-15.73,15.83-17s-11.47,3.54-19.43,11.13S158,92.12,158,92.12"/><path class="cls-4" d="M185.25,73.8c-1.9,3.12-7,9.08-14.9,14.25-3.89,2.55-8.67,5.48-10.21,6.31,0,0-5.83.12,2.17-4,8.65-4.52,23.61-17.94,23.61-17.94Z"/><path class="cls-2" d="M158.07,90.8c.84-.45,6.46-4.49,11-7.9,10.85-8.26,17.1-17.59,16.13-18.61s-11.77,5.16-19.89,13.62-9.37,10.24-9.37,10.24"/><path class="cls-4" d="M183.76,66.48c-1.92,3.26-7.11,9.73-15.2,15.88-4,3-8.87,6.56-10.44,7.6l2-2.76L184.43,65Z"/><path class="cls-2" d="M157.36,87.2c.81-.59,6.16-5.58,10.41-9.77,10.27-10.12,15.6-20.79,14.46-21.75s-11.64,7-19,16.95-8.47,12-8.47,12"/><path class="cls-4" d="M181.05,58.18c-1.59,3.69-6.17,11.2-13.82,18.74-3.77,3.71-8.43,8.08-9.94,9.37l-.9-.75,25.18-29Z"/><path class="cls-2" d="M157.2,80.72c.75-.64,5.62-6.06,9.47-10.57,9.32-10.94,13.81-22.1,12.65-23S168.49,55,162,65.57s-7.45,12.76-7.45,12.76"/><path class="cls-4" d="M178.33,49.75c-1.3,3.85-5.27,11.77-12.21,19.91-3.42,4-7.66,8.74-9,10.15l-.91-.71,22.56-31Z"/><path class="cls-2" d="M154.21,80.3c.74-.93,5.35-8.34,8.95-14.47C171.9,51,175.32,37.27,173.92,36.58S163.11,48.35,157.38,62s-6.44,16.34-6.44,16.34"/><path class="cls-4" d="M173.19,39.78c-.91,4.66-4.2,14.62-10.7,25.66-3.2,5.44-7.21,11.91-8.53,13.88l-1.1-.54s-1.67,2.54,3.53-5.85c4.77-7.67,17-35.16,17-35.16Z"/><path class="cls-2" d="M152.25,77.43c.67-1.06,4.72-9.41,7.86-16.29,7.59-16.64,9.73-31.57,8.2-32.15s-10.1,13.61-14.67,28.73-5,18-5,18"/><path class="cls-4" d="M167.88,32.45c-.47,5-2.86,15.95-8.52,28.35-2.78,6.1-6.3,13.39-7.48,15.61L150.67,76,167.89,30.3Z"/><path class="cls-2" d="M150.58,72.93c.55-1.13,3.64-9.88,6-17.06,5.69-17.39,6.14-32.47,4.55-32.87s-8.51,14.65-11.36,30.19-3,18.46-3,18.46"/><path class="cls-4" d="M161.08,26.49c.11,5.06-1.06,16.17-5.29,29.12C153.7,62,151,69.62,150.09,72l-1.24-.32,12-47.29Z"/><path class="cls-2" d="M146.86,72c.5-1.28,3.07-11,5-19,4.62-19.37,3.77-35.76,2-36.06s-7.93,16.65-9.63,33.76S142.62,71,142.62,71"/><path class="cls-4" d="M154.12,20.7c.56,5.48.29,17.63-3.15,32.06-1.7,7.1-3.92,15.61-4.72,18.24l-1.38-.23,8.81-52.37Z"/><path class="cls-2" d="M143.14,69.08c.41-1.36,2.3-11.69,3.65-20.14C150,28.49,147.86,11.56,146,11.4s-6.89,17.89-7.3,35.77,0,21.16,0,21.16"/><path class="cls-4" d="M146.58,15.3c1,5.65,1.71,18.27-.71,33.5-1.19,7.49-2.83,16.5-3.44,19.29L141,68l5-55Z"/><path class="cls-9" d="M139,64.26c.29-1.39,1.24-11.85,1.82-20.38,1.4-20.66-2.3-37.33-4.16-37.33s-5.25,18.45-4,36.29,1.86,21.08,1.86,21.08"/><path class="cls-4" d="M137.63,10.39c1.52,5.53,3.34,18,2.3,33.42-.51,7.58-1.33,16.7-1.69,19.52h-1.46V8.11Z"/><path class="cls-4" d="M146.62,77.43s7.61,4.48,11.66,27.91c1.54,8.93,1.52,17-6.09,43.86-3,10.64-3.74,14.78-3.74,14.78l5.79,3.15,10-46.39-3.51-31.58-14-16.23"/><polygon class="cls-11" points="129.53 65.47 129.53 81.78 131.12 82.2 132.71 81.78 132.71 65.47 129.53 65.47"/><path class="cls-11" d="M132.71,65.47s.87-.66,5-1.53,14.56-2.52,22.11,15.43,8.32,30.21,6.9,46.74c-1.14,13.21-9.85,42.47-9.85,42.47l-6.24-3.39s6.24-19.92,8.7-33.42c2-11.05,2-21.75.82-27.66s-4.1-18.56-11-25c0,0-4.51-4.35-9.93-2.13s-6.54,4.76-6.54,4.76Z"/><path class="cls-4" d="M142.08,63.45s-5.62,0-7.55.35a28.75,28.75,0,0,0-5,1.67h3.18a20.88,20.88,0,0,1,3.94-1.29C138.75,63.74,142.08,63.45,142.08,63.45Z"/><path class="cls-4" d="M134.2,64.85l-1.49.62v13S133,70,134.2,64.85Z"/><path class="cls-2" d="M66.75,165.2a62.09,62.09,0,0,1-5.27,3.62c-5.43,3.4-10.85,3.3-11.26,2.2s4-5.41,9.19-6.93,6.26-1.53,6.26-1.53"/><path class="cls-9" d="M50.67,170.87a61.88,61.88,0,0,0,7.83-3A64.84,64.84,0,0,0,66,164l.31.86c-.7.57-3.06,2.19-5.05,3.44a16.61,16.61,0,0,1-9.77,2.81Z"/><path class="cls-2" d="M65.45,161.2A62.2,62.2,0,0,1,60,164.49c-5.62,3.06-11,2.62-11.37,1.5s4.3-5.15,9.6-6.34,6.33-1.15,6.33-1.15"/><path class="cls-9" d="M49.06,165.87a62.52,62.52,0,0,0,8-2.49,66.31,66.31,0,0,0,7.73-3.44l.26.87c-.74.53-3.19,2-5.25,3.12a16.59,16.59,0,0,1-9.93,2.21Z"/><path class="cls-2" d="M63.8,157.07a62.2,62.2,0,0,1-5.48,3.29c-5.62,3.06-11,2.62-11.37,1.5s4.3-5.15,9.6-6.34,6.33-1.15,6.33-1.15"/><path class="cls-9" d="M47.41,161.74a62.52,62.52,0,0,0,8-2.49,66.31,66.31,0,0,0,7.73-3.44l.26.88c-.74.52-3.19,2-5.25,3.12a16.63,16.63,0,0,1-9.93,2.2Z"/><path class="cls-2" d="M62.34,153.23c-.36.31-3.2,2-5.55,3.17-5.69,2.94-11.09,2.38-11.4,1.25s4.41-5.06,9.73-6.13,6.36-1,6.36-1"/><path class="cls-9" d="M45.85,157.55a64.21,64.21,0,0,0,8-2.32,65.43,65.43,0,0,0,7.8-3.28l.24.88c-.75.51-3.23,1.93-5.31,3a16.66,16.66,0,0,1-10,2Z"/><path class="cls-2" d="M61.66,149.2A62.38,62.38,0,0,1,56,152.37c-5.85,2.94-11.41,2.39-11.73,1.26s4.54-5.06,10-6.14,6.55-1,6.55-1"/><path class="cls-9" d="M44.69,153.52a61.83,61.83,0,0,0,7.58-1.91c3.24-1.11,8.72-3.69,8.72-3.69l.26.89c-.78.51-3.33,1.93-5.48,3a17.45,17.45,0,0,1-10.26,2Z"/><path class="cls-2" d="M61.15,144.18a65.39,65.39,0,0,1-6.27,3.35c-6.44,3.11-12.55,2.52-12.91,1.33s5-5.34,11-6.48,7.19-1.06,7.19-1.06"/><path class="cls-9" d="M42.5,148.74s4.77-1,9.1-2.26a71.2,71.2,0,0,0,8.82-3.64l.28.93c-.85.53-3.66,2-6,3.17A19.83,19.83,0,0,1,43.4,149Z"/><path class="cls-2" d="M60.92,139.65a72.08,72.08,0,0,1-7,3.31c-7.14,3-13.7,2-14,.69s5.72-5.57,12.28-6.46,7.84-.74,7.84-.74"/><path class="cls-9" d="M40.5,143.56s11.66-1.58,17.92-4.37,2,0,2,0c-1,.54-4.07,2-6.68,3.13-5.32,2.26-10.09,2.19-12.31,1.64Z"/><path class="cls-2" d="M59.72,136.08c-.47.32-4.11,1.88-7.11,3-7.27,2.72-13.78,1.44-14,.09s6-5.32,12.55-5.94,7.85-.4,7.85-.4"/><path class="cls-9" d="M39.16,139.11s12.89-1.92,18.58-4,1.53.49,1.53.49c-1,.49-4.15,1.84-6.81,2.84-5.41,2-10.17,1.76-12.37,1.12Z"/><path class="cls-10" d="M58.45,132.47c-.51.25-4.33,1.29-7.46,2-7.57,1.69-13.84-.48-13.9-1.84s6.62-4.46,13.24-4.15,7.84.68,7.84.68"/><path class="cls-9" d="M37.66,132.64A40.29,40.29,0,0,0,57,130.41c5.46-2,1.11,1.5,1.11,1.5-1,.36-4.37,1.26-7.14,1.88a21.35,21.35,0,0,1-12.41-.6Z"/><path class="cls-10" d="M58.42,127.82a74.93,74.93,0,0,1-7.52,1.75c-7.63,1.43-13.82-.95-13.84-2.32s6.77-4.22,13.38-3.69,7.81.94,7.81.94"/><path class="cls-9" d="M37.64,127.28s5.22,1.81,17-.38c12.33-2.3,3.45.36,3.45.36-1,.32-4.41,1.1-7.2,1.63-5.68,1.07-10.32,0-12.38-1Z"/><path class="cls-2" d="M60,122.67c-.56.23-4.85,1.07-8.36,1.61-8.52,1.3-15.78-1.26-15.93-2.65s7.26-4.16,14.81-3.48,9,1.13,9,1.13"/><path class="cls-9" d="M36.36,121.67s14.32,1.82,20-.33c4.47-1.7,3.23.74,3.23.74-1.16.31-4.9,1-8,1.51a27.51,27.51,0,0,1-14.14-1.31Z"/><path class="cls-2" d="M60,118.13c-.57.22-4.87,1-8.4,1.44-8.53,1.14-15.75-1.57-15.87-3s7.35-4,14.88-3.19,8.94,1.31,8.94,1.31"/><path class="cls-9" d="M36.36,116.66s12.23,1.9,20.39,0c7.47-1.73,2.77.87,2.77.87-1.15.28-4.91.93-8,1.35a27.54,27.54,0,0,1-14.11-1.59Z"/><path class="cls-2" d="M59.48,113.86c-.57.19-4.91.73-8.45,1-8.59.69-15.65-2.38-15.7-3.78s7.54-3.63,15-2.41,8.85,1.77,8.85,1.77"/><path class="cls-9" d="M36,111.18s11.43,2.08,20.72,1.55,2.37.51,2.37.51c-1.17.23-5,.68-8.1.93a27.49,27.49,0,0,1-14-2.31Z"/><path class="cls-2" d="M60.76,109.62c-.64.16-5.34.44-9.18.51-9.29.17-16.7-3.47-16.67-4.92s8.36-3.28,16.35-1.54,9.42,2.4,9.42,2.4"/><path class="cls-9" d="M35.61,105.34s12.67,3.09,21.06,2.63,3.68,1,3.68,1c-1.27.15-5.38.38-8.78.44a30.83,30.83,0,0,1-15-3.29Z"/><path class="cls-2" d="M61.26,105.64c-.69.06-5.65-.42-9.68-1-9.74-1.31-17-6.08-16.72-7.51s9.24-1.92,17.33,1.07,9.51,3.87,9.51,3.87"/><path class="cls-9" d="M35.57,97.41s8.38,4,22,5.55c13.07,1.43,3.35,2,3.35,2-1.35,0-5.68-.47-9.25-1-7.26-1-12.81-3.82-15.16-5.63Z"/><path class="cls-2" d="M61.67,102.22c-.73-.08-6-1.56-10.17-2.91C41.29,96.05,34.19,90,34.63,88.66s10,.06,18.3,4.59,9.64,5.67,9.64,5.67"/><path class="cls-9" d="M35.36,89S50,96.92,56.77,98.6s4.64,2.86,4.64,2.86c-1.43-.33-6-1.62-9.72-2.82-7.6-2.43-13.16-6.3-15.44-8.53Z"/><path class="cls-2" d="M62.18,98.6c-.77-.18-6.14-2.31-10.45-4.19C41.28,89.86,34.46,82.9,35.08,81.63S45.74,83,54,88.53s9.56,6.88,9.56,6.88"/><path class="cls-9" d="M35.81,82.11s17,10.72,23.26,12.64,2.93,3,2.93,3c-1.49-.5-6.17-2.37-10-4-7.78-3.39-13.22-8-15.38-10.47Z"/><path class="cls-2" d="M62.59,95.25c-.81-.34-6.31-3.69-10.69-6.56C41.28,81.75,35.13,73,36.06,71.73S47.53,75.27,55.5,82.86s9.19,9.26,9.19,9.26"/><path class="cls-9" d="M36.77,72.38S51.72,85.8,60.38,90.32c8,4.16,2.16,4,2.16,4-1.54-.83-6.32-3.76-10.21-6.31-7.91-5.17-13-11.13-14.89-14.25Z"/><path class="cls-2" d="M64.61,90.8c-.84-.45-6.46-4.49-10.94-7.9C42.81,74.64,36.56,65.31,37.53,64.29S49.3,69.45,57.42,77.91s9.37,10.24,9.37,10.24"/><path class="cls-9" d="M38.25,65,62.57,87.2l2,2.76c-1.58-1-6.47-4.58-10.45-7.6C46,76.21,40.85,69.74,38.93,66.48Z"/><path class="cls-2" d="M65.33,87.2c-.82-.59-6.17-5.58-10.42-9.77C44.64,67.31,39.31,56.64,40.45,55.68s11.64,7,19,16.95,8.47,12,8.47,12"/><path class="cls-9" d="M41.12,56.54l25.17,29-.9.75c-1.51-1.29-6.17-5.66-9.93-9.37C47.8,69.38,43.22,61.87,41.63,58.18Z"/><path class="cls-2" d="M65.48,80.72c-.75-.64-5.62-6.06-9.47-10.57-9.32-10.94-13.81-22.1-12.65-23S54.19,55,60.73,65.57s7.45,12.76,7.45,12.76"/><path class="cls-9" d="M44,48.06l22.57,31-.92.71c-1.38-1.41-5.62-6.14-9-10.15C49.63,61.52,45.66,53.6,44.35,49.75Z"/><path class="cls-2" d="M68.47,80.3c-.74-.93-5.34-8.34-8.95-14.47C50.79,51,47.37,37.27,48.77,36.58S59.57,48.35,65.3,62s6.44,16.34,6.44,16.34"/><path class="cls-9" d="M49.28,37.77s12.25,27.49,17,35.16c5.2,8.39,3.53,5.85,3.53,5.85l-1.1.54c-1.32-2-5.33-8.44-8.53-13.88-6.5-11-9.78-21-10.7-25.66Z"/><path class="cls-2" d="M70.44,77.43c-.68-1.06-4.73-9.41-7.86-16.29C55,44.5,52.84,29.57,54.38,29S64.47,42.6,69,57.72s5,18,5,18"/><path class="cls-9" d="M54.79,30.3,72,76l-1.2.45c-1.18-2.22-4.7-9.51-7.49-15.61-5.66-12.4-8-23.3-8.52-28.35Z"/><path class="cls-2" d="M72.11,72.93c-.55-1.13-3.65-9.88-6-17.06C60.43,38.48,60,23.4,61.56,23s8.51,14.65,11.36,30.19,3,18.46,3,18.46"/><path class="cls-9" d="M61.83,24.35l12,47.29L72.59,72C71.66,69.62,69,62,66.9,55.61c-4.24-13-5.4-24.06-5.3-29.12Z"/><path class="cls-2" d="M75.82,72c-.49-1.28-3.07-11-5-19-4.63-19.37-3.78-35.76-2-36.06s7.92,16.65,9.62,33.76S80.06,71,80.06,71"/><path class="cls-9" d="M69,18.4l8.8,52.37L76.43,71c-.79-2.63-3-11.14-4.71-18.24C68.27,38.33,68,26.18,68.57,20.7Z"/><path class="cls-2" d="M79.54,69.08c-.41-1.36-2.3-11.69-3.64-20.14-3.25-20.45-1.07-37.38.78-37.54S83.57,29.29,84,47.17s0,21.16,0,21.16"/><path class="cls-9" d="M76.74,13l5,55-1.45.13C79.64,65.3,78,56.29,76.82,48.8,74.39,33.57,75.08,21,76.1,15.3Z"/><path class="cls-9" d="M88.16,64.26c.28-1.39,1.24-11.85,1.82-20.38,1.39-20.66-2.3-37.33-4.16-37.33s-5.26,18.45-4,36.29,1.86,21.08,1.86,21.08"/><path class="cls-4" d="M86.75,10.39c1.52,5.53,3.34,18,2.3,33.42-.51,7.58-1.33,16.7-1.69,19.52H85.9V8.11Z"/><path class="cls-7" d="M76.06,77.43s-7.79,4.48-11.84,27.91c-1.54,8.93-1.16,18.15,4.88,42.88C71.72,159,74.24,164,74.24,164l-5.79,3.15-10-46.39,3.51-31.58,14-16.23"/><polygon class="cls-7" points="93.15 65.47 93.15 81.78 91.4 82.14 89.98 81.78 89.98 65.47 93.15 65.47"/><polygon class="cls-4" points="93.15 65.47 89.98 65.47 89.98 81.78 90.54 66.67 93.15 65.47"/><path class="cls-11" d="M90,65.47s-.88-.66-5-1.53S70.38,61.42,62.83,79.37s-8.32,30.21-6.9,46.74c1.14,13.21,9.85,42.47,9.85,42.47L72,165.19s-6.24-19.92-8.7-33.42c-2-11.05-2-21.75-.82-27.66s4.11-18.56,11-25c0,0,4.52-4.35,9.94-2.13S90,81.78,90,81.78Z"/><path class="cls-4" d="M80.6,63.45s5.63,0,7.56.35a28.53,28.53,0,0,1,5,1.67H90a20.82,20.82,0,0,0-4-1.29C83.93,63.74,80.6,63.45,80.6,63.45Z"/><path class="cls-4" d="M55.93,126.11c-1.42-16.53-.65-28.79,6.9-46.74s18-16.31,22.11-15.43,5,1.53,5,1.53V81.78S88.85,79.23,83.44,77s-9.94,2.13-9.94,2.13-3.61,2.13-8.46,9-8,30.55-8,30.55Z"/></g><g id="POLANDBALL-2" data-name="POLANDBALL"><ellipse class="cls-2" cx="110.98" cy="191.5" rx="67.03" ry="68.28"/><path class="cls-9" d="M50.88,189.2v3.46a60.18,60.18,0,0,0,60.18,60.19h-.16a60.18,60.18,0,0,0,60.18-60.19V189.2"/><path class="cls-4" d="M50.88,192.66a60.18,60.18,0,0,0,60.18,60.19h-.16a60.18,60.18,0,0,0,60.18-60.19S156.74,239.94,111,239.94,50.88,192.66,50.88,192.66Z"/><path class="cls-1" d="M111.06,129.79A60.18,60.18,0,0,0,50.88,190a11.06,11.06,0,0,0,1.2,5.45c4,6.4,23.59,16.16,58.89,15.64,38.56-.56,55-9.24,58.91-15.64a11.06,11.06,0,0,0,1.2-5.45,60.18,60.18,0,0,0-60.18-60.18Z"/><path class="cls-2" d="M111.06,129.79h0m-.08,0A60.18,60.18,0,0,1,171.08,190a11.06,11.06,0,0,1-1.2,5.45c-3.95,6.4-20.35,15.08-58.91,15.64-.91,0-1.8,0-2.69,0-33.61,0-52.35-9.42-56.2-15.66a11.06,11.06,0,0,1-1.2-5.45A60.18,60.18,0,0,1,111,129.79m.08-3h-.16a63.26,63.26,0,0,0-63,63.12A13.65,13.65,0,0,0,49.53,197c2.59,4.19,9.34,8.37,18.54,11.44,7.69,2.58,20.92,5.65,40.21,5.65.9,0,1.81,0,2.74,0,47.64-.7,59.05-13.24,61.41-17.07a13.65,13.65,0,0,0,1.65-7.08,63.26,63.26,0,0,0-63-63.12Z"/><path class="cls-12" d="M111.06,202.31c-33.24,0-60.18-45.58-60.18-12.34a11.06,11.06,0,0,0,1.2,5.45c4,6.4,23.59,16.16,58.89,15.64,38.56-.56,55-9.24,58.91-15.64a11.06,11.06,0,0,0,1.2-5.45c0-33.24-26.94,12.34-60.18,12.34Z"/><path class="cls-9" d="M79.2,199c-6.94-4.29-5.67-11.07-6-12.54a48.39,48.39,0,0,0,11,8.12c4.52,2.47,9.41,4.6,13.74,6.45C94.84,200.84,84.34,202.15,79.2,199Z"/><path class="cls-2" d="M85.9,191a82.41,82.41,0,0,1-17.39-15.37,44.21,44.21,0,0,0-1.75,6,32,32,0,0,0-.67,10,15.18,15.18,0,0,1,.81-3.43A27.06,27.06,0,0,0,68,193.92a19.14,19.14,0,0,0,3.09,6.15,15.71,15.71,0,0,0,5.59,4.61,16.61,16.61,0,0,0,6.9,1.66,34.84,34.84,0,0,0,6.2-.45,33.44,33.44,0,0,0,5.9-1.62,18.67,18.67,0,0,1-4.32,2.42,14.88,14.88,0,0,0,6.27-1.95,17.08,17.08,0,0,0,4.2-3.51S98,199.12,85.9,191Zm-6.7,8c-6.94-4.29-5.67-11.07-6-12.54a48.39,48.39,0,0,0,11,8.12c4.52,2.47,9.41,4.6,13.74,6.45C94.84,200.84,84.34,202.15,79.2,199Z"/><path class="cls-9" d="M124,201c4.33-1.85,9.22-4,13.74-6.45a48.39,48.39,0,0,0,11-8.12c-.31,1.47,1,8.25-6,12.54C137.62,202.15,127.12,200.84,124,201Z"/><path class="cls-2" d="M120.17,201.23a17.27,17.27,0,0,0,4.2,3.51,14.93,14.93,0,0,0,6.27,1.95,18.67,18.67,0,0,1-4.32-2.42,33.44,33.44,0,0,0,5.9,1.62,34.84,34.84,0,0,0,6.2.45,16.61,16.61,0,0,0,6.9-1.66,15.71,15.71,0,0,0,5.59-4.61,19.14,19.14,0,0,0,3.09-6.15,27.06,27.06,0,0,0,1.06-5.71,15.18,15.18,0,0,1,.81,3.43,32,32,0,0,0-.67-10,44.21,44.21,0,0,0-1.75-6A82.49,82.49,0,0,1,136.07,191C124,199.12,120.17,201.23,120.17,201.23ZM124,201c4.33-1.85,9.22-4,13.74-6.45a48.39,48.39,0,0,0,11-8.12c-.31,1.47,1,8.25-6,12.54C137.62,202.15,127.12,200.84,124,201Z"/></g><g id="HELM-2" data-name="HELM"><path class="cls-2" d="M104.42,205.38c-3.67,4.06-6.26,3.73-7.15,3.73-1.83,0-3.8-1-5.86-2.93-.24-.23-.51-.56-.77-.87-.78-.94-1.74-2.12-3.29-2.12h-.11a3.39,3.39,0,0,0-2.5,1.27c-1.81,2.11-1.74,6.93-.88,10.76.93,4.16,4.54,7,6.8,8.12a48.53,48.53,0,0,0,7.71,2.94l-4.11,3.62A98.34,98.34,0,0,0,111,238.06m-2.33-53.5-19.9,2s12.6.45,16.18,3.1l.5,6.24-7.24-3.31,5.85,9.64m0,0h3.42V186.76"/><path class="cls-2" d="M111,238.06a98.34,98.34,0,0,0,16.72-8.15l-4.11-3.62a48.53,48.53,0,0,0,7.71-2.94c2.26-1.09,5.87-4,6.8-8.12.86-3.83.94-8.65-.88-10.76a3.38,3.38,0,0,0-2.5-1.27h-.11c-1.54,0-2.51,1.18-3.29,2.12-.26.31-.53.64-.77.87-2.06,1.94-4,2.93-5.86,2.93-.89,0-3.48.33-7.15-3.73m.38-3.11,5.86-9.64-7.24,3.31.5-6.24c3.57-2.65,16.17-3.1,16.17-3.1l-19.9-2m1.2,2.2v15.51h3.41"/><path class="cls-3" d="M181,208.39c-.28-14.33,0-32.54,0-32.54l-10,2.54,5.66-5.69a68.71,68.71,0,0,0-9.4-23.36A66.41,66.41,0,0,0,126.56,120a1.75,1.75,0,0,0-.16-2.17c-.44-.49-1.61-.52-4.38-1.73s-3.1-2.82-3.1-2.82a161.1,161.1,0,0,0-2.76-23.46c-.81-4-5.18-9.5-5.18-9.5s-4.37,5.49-5.18,9.5A162.73,162.73,0,0,0,103,113.25s-.34,1.61-3.1,2.82-3.94,1.24-4.37,1.73A1.74,1.74,0,0,0,95.4,120a66.41,66.41,0,0,0-40.7,29.37,68.5,68.5,0,0,0-9.39,23.36L51,178.39l-10-2.54s.29,18.21,0,32.54-.31,20.37,3.06,30.52c3.22,9.67,9.92,18.8,9.92,18.8l1.12-51.1s-6.71-2.55-6.71-9.2a8.22,8.22,0,0,1,6.71-7.71c11.89-1.38,17-2.7,36-3.17a98.31,98.31,0,0,1,19.88,2.1,98.4,98.4,0,0,1,19.88-2.1c19,.47,24.13,1.79,36,3.17a8.22,8.22,0,0,1,6.71,7.71c0,6.65-6.71,9.2-6.71,9.2l1.13,51.1s6.69-9.13,9.91-18.8C181.3,228.76,181.27,222.72,181,208.39Z"/><path class="cls-2" d="M55,189.7a8.16,8.16,0,0,0-6.72,7.71c0,6.65,6.72,9.2,6.72,9.2L54.69,221c1.13-11.32,4.34-15,4.34-15-.18-.07-7.41-4.22-7.74-8.65-.43-5.91,8.28-8.26,8.28-8.26S56.33,189.56,55,189.7Z"/><path class="cls-3" d="M134.64,205.19c-.91,0-1.7,1.48-2.72,2.44-3.74,3.54-7.44,4.36-10.78,2.54a6.37,6.37,0,0,1-3.48-7.21l2.7-7-4.72,1.65V186.76h-9.31v10.83l-4.73-1.65,2.7,7a6.37,6.37,0,0,1-3.47,7.21c-3.35,1.82-7,1-10.79-2.54-1-1-1.81-2.47-2.72-2.44-2,.08-2.75,4.56-2.24,9.12.71,6.27,6,8.6,7.49,9.41l5.8,2.57-3,3.53c2.93,1.72,14.75,8.24,15.56,8.24s12.63-6.52,15.56-8.24l-3-3.53,5.8-2.57c1.52-.81,6.78-3.14,7.49-9.41C137.39,209.75,136.6,205.27,134.64,205.19Z"/><path class="cls-2" d="M162.39,189.15s8.72,2.35,8.28,8.26c-.33,4.43-7.56,8.58-7.74,8.65,0,0,3.21,3.64,4.34,15L167,206.61s6.71-2.55,6.71-9.2A8.16,8.16,0,0,0,167,189.7C165.64,189.56,162.39,189.15,162.39,189.15Z"/><path class="cls-2" d="M111,188.91a40,40,0,0,0-4.89-1.16v2.68l4.89,2.68,4.89-2.68v-2.68A40,40,0,0,0,111,188.91Z"/><path class="cls-4" d="M105.8,89.79c.81-4,5.18-9.5,5.18-9.5s4.37,5.49,5.18,9.5c0,0-4.33-8.32-5.18-8.32S105.8,89.79,105.8,89.79Z"/><polygon class="cls-4" points="110.62 81.71 110.98 149.35 111.34 81.71 110.98 81.11 110.62 81.71"/><path class="cls-4" d="M126.58,120a66.46,66.46,0,0,1,40.71,29.37,68.7,68.7,0,0,1,9.39,23.36l-2,2a67.44,67.44,0,0,0-10.39-24.62C147.2,126,126.58,120,126.58,120Z"/><polygon class="cls-4" points="110.54 177.43 110.98 188.91 111.42 177.43 110.54 177.43"/><path class="cls-7" d="M111,169.73h0L69.1,176.15c10.22-.9,27.19-2.82,37.65-3.56,2.64-.19,4.23,6.32,4.23,6.32s1.59-6.51,4.23-6.32c10.46.74,27.43,2.66,37.65,3.56Z"/><polygon class="cls-4" points="171 178.39 181 175.85 180.95 179.35 171 178.39"/><polygon class="cls-4" points="50.86 178.39 40.86 175.85 40.91 179.35 50.86 178.39"/><path class="cls-4" d="M54,257.71s-6.7-9.13-9.92-18.8c-3.37-10.15-3.34-16.19-3.06-30.52,0,0,.2,16.4,4.88,30.25S54,257.71,54,257.71Z"/><path class="cls-4" d="M168,257.71s6.7-9.13,9.91-18.8c3.38-10.15,3.35-16.19,3.07-30.52,0,0-.21,16.4-4.89,30.25S168,257.71,168,257.71Z"/><polygon class="cls-2" points="185.67 207.9 175.37 205.86 185.47 212.96 185.67 207.9"/><path class="cls-4" d="M92.57,223.72c-1.52-.81-6.78-3.14-7.49-9.41-.51-4.56.28-9,2.24-9.12,0,0-2.31,2-1.13,8.93A13.56,13.56,0,0,0,92.57,223.72Z"/><path class="cls-4" d="M129.42,223.72c1.51-.81,6.77-3.14,7.48-9.41.52-4.56-.28-9-2.24-9.12,0,0,2.31,2,1.13,8.93A13.56,13.56,0,0,1,129.42,223.72Z"/><polygon class="cls-4" points="175.37 205.86 181.01 209.83 181.05 211.67 175.37 205.86"/><polygon class="cls-4" points="64.28 141.04 68.58 145.18 65.49 139.91 64.28 141.04"/><path class="cls-7" d="M95.42,229.82c2.93,1.72,14.75,8.24,15.56,8.24s12.63-6.52,15.56-8.24a29,29,0,0,0-31.12,0Z"/><path class="cls-4" d="M111,193.11s-.57,20.34-.57,28.18.57,16.77.57,16.77.53-8.89.53-16.77S111,193.11,111,193.11Z"/><path class="cls-4" d="M111,188.91a48.33,48.33,0,0,0-9.91-1.84c-5.66-.45-7.82-.53-7.82-.53s16.51,1,17.73.61"/><path class="cls-4" d="M111,188.91a48.33,48.33,0,0,1,9.91-1.84c5.66-.45,7.82-.53,7.82-.53s-16.5,1-17.73.61"/><path class="cls-4" d="M168,207.54s3.54-2.3,4.12-5.1a11.29,11.29,0,0,1-2.81,2.84,17.22,17.22,0,0,1-2.38,1.33"/><polygon class="cls-7" points="166.96 206.61 168.03 207.54 167.76 246.41 167.22 221.82 167.04 210.41 166.96 206.61"/><path class="cls-4" d="M53.93,207.54s-3.54-2.3-4.12-5.1a11.29,11.29,0,0,0,2.81,2.84A17.22,17.22,0,0,0,55,206.61"/><polygon class="cls-7" points="55 206.61 53.93 207.54 54.2 246.41 54.74 221.82 54.92 210.41 55 206.61"/><path class="cls-7" d="M91.1,121.64a44.67,44.67,0,0,0,3.62,17.77c3.94,8.76,16.26,19.12,16.26,19.12s-7.85-8.65-12.28-18.62A42.73,42.73,0,0,1,95.4,120s-1.43.47-2.27.82S91.1,121.64,91.1,121.64Z"/><path class="cls-7" d="M126.56,120a42.73,42.73,0,0,1-3.3,19.94c-4.43,10-12.28,18.62-12.28,18.62s12.32-10.36,16.26-19.12a44.67,44.67,0,0,0,3.62-17.77s-1.37-.62-2.19-.93S126.56,120,126.56,120Z"/><path class="cls-4" d="M95.4,120a66.41,66.41,0,0,0-40.7,29.37,68.5,68.5,0,0,0-9.39,23.36l2,2a67.44,67.44,0,0,1,10.39-24.62C74.79,126,95.4,120,95.4,120Z"/><polygon class="cls-2" points="64.11 137.53 68.58 145.18 67.94 133.98 64.11 137.53"/><path class="cls-7" d="M59.57,189.15l1.92-10-10.63-.78s6.88,1.09,8.24,2.46S59.57,189.15,59.57,189.15Z"/><path class="cls-7" d="M162.36,189.15l-1.92-10,10.63-.78s-6.88,1.09-8.24,2.46S162.36,189.15,162.36,189.15Z"/></g></g></g></svg>