<?xml version="1.0" encoding="UTF-8" standalone="no"?>
<!-- Generator: Adobe Illustrator 12.0.0, SVG Export Plug-In . SVG Version: 6.00 Build 51448)  -->

<svg
   xmlns:dc="http://purl.org/dc/elements/1.1/"
   xmlns:cc="http://creativecommons.org/ns#"
   xmlns:rdf="http://www.w3.org/1999/02/22-rdf-syntax-ns#"
   xmlns:svg="http://www.w3.org/2000/svg"
   xmlns="http://www.w3.org/2000/svg"
   xmlns:sodipodi="http://sodipodi.sourceforge.net/DTD/sodipodi-0.dtd"
   xmlns:inkscape="http://www.inkscape.org/namespaces/inkscape"
   version="1.1"
   width="55.653"
   height="53.631001"
   viewBox="0 0 55.653 53.630999"
   overflow="visible"
   enable-background="new 0 0 395.271 53.331"
   xml:space="preserve"
   id="svg122"
   sodipodi:docname="log.svg"
   style="overflow:visible"
   inkscape:export-filename="C:\Users\nazyw\Desktop\Logo.png"
   inkscape:export-xdpi="966.6051"
   inkscape:export-ydpi="966.6051"
   inkscape:version="0.92.3 (2405546, 2018-03-11)"><metadata
   id="metadata128"><rdf:RDF><cc:Work
       rdf:about=""><dc:format>image/svg+xml</dc:format><dc:type
         rdf:resource="http://purl.org/dc/dcmitype/StillImage" /><dc:title></dc:title></cc:Work></rdf:RDF></metadata><defs
   id="defs126">
	
	

		
		
		
	
			
		</defs><sodipodi:namedview
   pagecolor="#ffffff"
   bordercolor="#666666"
   borderopacity="1"
   objecttolerance="10"
   gridtolerance="10"
   guidetolerance="10"
   inkscape:pageopacity="0"
   inkscape:pageshadow="2"
   inkscape:window-width="1920"
   inkscape:window-height="1001"
   id="namedview124"
   showgrid="false"
   inkscape:zoom="3.9770183"
   inkscape:cx="-42.00925"
   inkscape:cy="49.059321"
   inkscape:window-x="-9"
   inkscape:window-y="-9"
   inkscape:window-maximized="1"
   inkscape:current-layer="svg122" />
<path
   style="fill:#3da3c8;fill-opacity:0.94117647;stroke:#d2f0ff;stroke-width:0.30000001;stroke-miterlimit:4;stroke-dasharray:none;stroke-opacity:1"
   inkscape:connector-curvature="0"
   id="path110"
   d="m 37.318,40.222 c 0,1.229 -0.378,2.077 -1.133,2.541 -0.524,0.333 -1.295,0.5 -2.314,0.5 H 32.79 c -1.706,0 -2.872,-0.167 -3.495,-0.499 -0.789,-0.433 -1.182,-1.28 -1.182,-2.542 v -3.289 c 0,-0.365 -0.176,-0.705 -0.527,-1.02 -0.351,-0.316 -0.677,-0.474 -0.978,-0.474 H 15.567 c -1.237,0 -2.091,-0.399 -2.56,-1.199 -0.301,-0.53 -0.451,-1.328 -0.451,-2.392 V 30.9 c 0,-1.728 0.19,-2.934 0.574,-3.615 0.382,-0.681 1.187,-1.022 2.416,-1.022 h 3.19 c 0.598,0 1.021,-0.157 1.271,-0.47 0.249,-0.316 0.374,-0.689 0.374,-1.121 v -3.187 c 0,-1.095 0.303,-1.866 0.909,-2.314 0.607,-0.448 1.315,-0.673 2.124,-0.673 h 3.337 c 0.506,0 0.859,-0.157 1.061,-0.472 0.202,-0.315 0.304,-0.656 0.304,-1.02 V 13.72 c 0,-1.26 0.414,-2.106 1.243,-2.538 0.563,-0.297 1.427,-0.447 2.587,-0.447 h 0.896 c 2.189,0 3.516,0.298 3.98,0.895 0.331,0.432 0.498,1.645 0.498,3.637 0,1.761 -0.151,2.939 -0.454,3.537 -0.404,0.796 -1.229,1.195 -2.473,1.195 H 30.91 c -0.539,0 -0.909,0.208 -1.111,0.621 -0.202,0.414 -0.303,0.903 -0.303,1.467 v 0.894 c 0,1.227 0.092,2.08 0.274,2.562 0.183,0.48 0.639,0.719 1.371,0.719 h 3.19 c 0.995,0 1.743,0.283 2.241,0.85 0.499,0.563 0.748,1.277 0.748,2.143 v 10.967 z" /><path
   d="m 28.838,0.15000001 c -2.64,0 -5.188,0.391 -7.595,1.10299999 0.074,0 0.147,-0.004 0.223,-0.004 14.12,0 25.567,11.446 25.567,25.567 0,14.118 -11.447,25.567 -25.567,25.567 -0.074,0 -0.147,-0.006 -0.222,-0.006 2.407,0.714 4.955,1.104 7.594,1.104 14.726,0 26.665,-11.938 26.665,-26.666 0,-14.727 -11.938,-26.66499999 -26.665,-26.66499999 z"
   id="path114"
   inkscape:connector-curvature="0"
   style="fill:#3ea3c8;fill-opacity:1;stroke:#d2f0ff;stroke-width:0.30000001;stroke-miterlimit:4;stroke-dasharray:none;stroke-opacity:1" /><path
   d="m 23.127,49.791 c 2.274,0 4.47,-0.336 6.543,-0.95 -0.063,0 -0.127,0.004 -0.192,0.004 -12.167,0 -22.03,-9.863 -22.03,-22.03 0,-12.165 9.863,-22.03 22.03,-22.03 0.064,0 0.127,0.004 0.192,0.004 C 27.594,4.173 25.399,3.837 23.127,3.837 10.437,3.838 0.15000001,14.126 0.15000001,26.815 0.15000001,39.504 10.437,49.791 23.127,49.791 Z"
   id="path116"
   inkscape:connector-curvature="0"
   style="fill:#6ab8d5;fill-opacity:1;stroke:#d2f0ff;stroke-width:0.30000001;stroke-miterlimit:4;stroke-dasharray:none;stroke-opacity:1" />
<g
   id="Layer_2"
   transform="translate(0.15000001,0.15000001)">
</g>
</svg>